<svg xmlns="http://www.w3.org/2000/svg" xmlns:xlink="http://www.w3.org/1999/xlink" width="233" height="67" viewBox="0 0 233 67"><defs><style>.a{clip-path:url(#b);}.b{fill:#0455fe;font-size:20px;font-family:Poppins-SemiBold, Poppins;font-weight:600;letter-spacing:0.02em;}</style><clipPath id="b"><rect width="233" height="67"/></clipPath></defs><g id="a" class="a"><g transform="translate(-81.276 -259.364)"><path d="M105.282,438.88c.169.07.357.144.543.224.64.276,1.28.551,1.917.831.471.207.936.426,1.406.634.556.246,1.116.484,1.674.729.627.275,1.251.555,1.877.83.588.258,1.179.509,1.767.767.471.206.93.441,1.41.622.348.131.669.318,1.023.439.285.1.553.252.833.37.5.211.993.433,1.489.651.563.247,1.124.495,1.688.739.5.215.992.432,1.493.634.163.066.322.143.485.209a.382.382,0,0,0,.456-.108c.243-.238.483-.478.723-.719.481-.48.968-.955,1.44-1.443.944-.976,1.887-1.954,2.815-2.946.279-.3.566-.586.848-.88q.522-.544,1.046-1.086a1.026,1.026,0,0,1,.182-.162c.066-.041.127-.167.22-.076.077.075.036.177-.021.261q-.255.38-.509.76c-.444.666-.881,1.336-1.332,2-.37.543-.761,1.073-1.135,1.614-.413.6-.816,1.2-1.227,1.8-.379.554-.764,1.1-1.144,1.658-.327.475-.638.962-.979,1.426a5.844,5.844,0,0,1-1.1,1.3.238.238,0,0,1-.352,0,13.565,13.565,0,0,0-1.4-.9q-1.08-.669-2.168-1.326c-.632-.381-1.27-.751-1.9-1.132-.789-.475-1.575-.957-2.363-1.433-.643-.389-1.29-.772-1.933-1.159q-1.41-.85-2.818-1.7-1.424-.865-2.843-1.736-1.029-.632-2.05-1.278a1.172,1.172,0,0,1-.2-.176.13.13,0,0,1-.031-.15c.029-.067.091-.074.176-.076Z" transform="translate(-5.146 -149.517)"/><path d="M126.574,366.79c-.173-.07-.374-.146-.572-.232-.354-.154-.715-.3-1.055-.475-.378-.2-.761-.385-1.144-.571-.554-.27-1.111-.534-1.666-.8-.677-.326-1.353-.655-2.032-.979-.41-.2-.825-.378-1.235-.573-.446-.213-.888-.436-1.334-.649-.4-.19-.8-.371-1.2-.558-.46-.216-.918-.435-1.378-.651-.69-.324-1.382-.644-2.071-.971-.556-.264-1.106-.54-1.663-.8-.667-.314-1.338-.618-2.005-.932a2.917,2.917,0,0,1-.386-.225.211.211,0,0,1-.089-.268c.044-.1.148-.095.232-.074.3.073.606.148.9.237.487.145.967.313,1.446.477.614.212,1.235.4,1.852.6.468.152.943.292,1.418.428.266.076.524.183.792.25.308.077.606.185.91.272.416.119.83.253,1.245.378.512.155,1.022.318,1.533.478s.99.329,1.493.46c.479.125.944.291,1.42.425.442.124.88.267,1.319.406.5.156,1,.3,1.5.45.291.089.576.2.871.275a7.8,7.8,0,0,0,.934.266.426.426,0,0,0,.326-.077q1.517-1.135,3.036-2.265c1.019-.755,2.047-1.5,3.058-2.263a6.069,6.069,0,0,1,.966-.7.523.523,0,0,1,.131-.053c.066-.012.141-.02.183.051a.154.154,0,0,1-.03.187c-.178.214-.35.433-.535.641-.68.767-1.368,1.527-2.045,2.3-.695.79-1.375,1.592-2.072,2.38-.841.95-1.614,1.961-2.515,2.857a.817.817,0,0,1-.544.31Z" transform="translate(-8.665 -71.269)"/><path d="M118.038,290.456c-.257-.069-.546-.124-.818-.225s-.559-.159-.835-.25c-.662-.219-1.345-.375-2-.6-.6-.207-1.213-.385-1.816-.587-.641-.214-1.3-.378-1.935-.606-.446-.16-.906-.275-1.35-.444s-.892-.273-1.337-.412c-.265-.083-.526-.177-.788-.268-.224-.077-.453-.136-.678-.212-.724-.243-1.455-.467-2.185-.693-.453-.14-.91-.267-1.362-.41-.477-.15-.944-.332-1.425-.461-.38-.1-.744-.244-1.118-.361-.184-.058-.337-.174-.522-.226a.11.11,0,0,1-.059-.181c.065-.075.135-.194.265-.144a6.779,6.779,0,0,0,1.445.292c.588.089,1.178.175,1.764.277.2.035.405.038.606.069.7.107,1.391.221,2.087.326s1.419.231,2.13.322c.659.085,1.316.188,1.972.287a9.948,9.948,0,0,1,1.545.245,3.569,3.569,0,0,0,.465.039c.888.149,1.783.257,2.67.406.521.088,1.047.16,1.568.237s1.053.2,1.588.234a1.174,1.174,0,0,0,.55-.106c.386-.161.79-.28,1.184-.422.427-.154.851-.319,1.278-.473.407-.147.817-.283,1.224-.43.389-.14.775-.289,1.164-.429.412-.148.83-.281,1.239-.438a6.823,6.823,0,0,1,.717-.226c.093-.024.192-.076.257.03a.223.223,0,0,1-.068.291,9.249,9.249,0,0,1-.846.669c-.875.675-1.763,1.335-2.642,2.005-.836.638-1.663,1.289-2.5,1.922-.4.3-.769.623-1.192.883a.363.363,0,0,1-.233.069Z"/></g><text class="b" transform="translate(53.5 20)"><tspan x="0" y="21">Vetor Sistemas</tspan></text></g></svg>