<svg xmlns="http://www.w3.org/2000/svg" width="18.726" height="18.728" viewBox="0 0 18.726 18.728">
  <path id="Vector" d="M7.129,3.534,4.309.28a.887.887,0,0,0-1.3.005L.693,2.608A2.241,2.241,0,0,0,.2,5.147a24.339,24.339,0,0,0,11.3,11.317,2.236,2.236,0,0,0,2.537-.489l2.34-2.344a.889.889,0,0,0,0-1.3l-3.267-2.8a.9.9,0,0,0-1.215.088l-1.137,1.138a.385.385,0,0,1-.461.073A12.131,12.131,0,0,1,5.838,6.35a.386.386,0,0,1,.073-.462L7.044,4.754a.9.9,0,0,0,.084-1.221Z" transform="translate(1.059 1)" fill="none" stroke="#fff" stroke-linecap="round" stroke-linejoin="round" stroke-width="2"/>
</svg>
