<svg xmlns="http://www.w3.org/2000/svg" xmlns:xlink="http://www.w3.org/1999/xlink" width="75" height="75" viewBox="0 0 75 75"><defs><style>.a{clip-path:url(#b);}.b{fill:#0455fe;}</style><clipPath id="b"><rect width="75" height="75"/></clipPath></defs><g id="a" class="a"><g transform="translate(5.301 481.45)"><path class="b" d="M186.392-468.835a5.953,5.953,0,0,0-3.878,4.1,10.74,10.74,0,0,0-.2,2.433v1.63h-1.223c-1.124,0-1.26.025-1.581.3l-.346.3-.037,6.41c-.025,3.52,0,6.583.037,6.805a1.455,1.455,0,0,0,.333.642c.259.247.445.247,8.584.247h8.325l.3-.309.309-.3v-13.438l-.321-.333c-.309-.309-.4-.321-1.532-.321h-1.2l-.074-1.89c-.1-2.557-.457-3.545-1.779-4.854A5.84,5.84,0,0,0,186.392-468.835Zm2.964,2.1a3.428,3.428,0,0,1,1.989,1.816,4.55,4.55,0,0,1,.457,2.52l.062,1.729h-7.472l.049-1.828c.037-1.618.074-1.877.321-2.371A3.677,3.677,0,0,1,189.356-466.736Zm5.558,13.413v5.249H181.2v-10.5h13.71Z" transform="translate(-156.383 -2)"/><path class="b" d="M188-469.58h0a6.4,6.4,0,0,1,4.469,1.813c1.406,1.392,1.82,2.508,1.923,5.187l.055,1.409h.717c1.145,0,1.418,0,1.885.468l.007.007.461.479v13.853l-.455.437-.437.455h-8.538c-4.1,0-6.158,0-7.261-.031s-1.392-.091-1.668-.354l-.009-.009a1.934,1.934,0,0,1-.472-.909c-.053-.318-.066-3.888-.045-6.9l.038-6.638.519-.445c.473-.4.786-.417,1.906-.417h.723v-1.13a11.092,11.092,0,0,1,.213-2.557,6.443,6.443,0,0,1,4.209-4.453A5.717,5.717,0,0,1,188-469.58Zm8.34,9.58c-.121-.121-.136-.124-.2-.137a6.661,6.661,0,0,0-.975-.034h-1.679l-.093-2.37c-.094-2.426-.414-3.313-1.631-4.518A5.382,5.382,0,0,0,188-468.58h0a4.72,4.72,0,0,0-1.451.22A5.423,5.423,0,0,0,183-464.614a10.388,10.388,0,0,0-.183,2.312v2.13h-1.723c-1.047,0-1.071.02-1.258.178l-.17.146-.036,6.182c-.025,3.622,0,6.428.031,6.726a1.042,1.042,0,0,0,.187.359c.309.107,2.193.107,8.237.107H196.2l.163-.169.155-.149v-13.023Zm-8.262-7.473a4.117,4.117,0,0,1,1.459.269,3.912,3.912,0,0,1,2.26,2.062,5.028,5.028,0,0,1,.508,2.722l.08,2.248h-8.5l.063-2.341a5.243,5.243,0,0,1,.374-2.582l0-.007A4.272,4.272,0,0,1,188.074-467.473Zm3.271,6.3-.043-1.211c-.062-1.628-.088-1.68-.4-2.314a2.942,2.942,0,0,0-1.72-1.572,3.118,3.118,0,0,0-1.1-.2,3.276,3.276,0,0,0-2.867,1.829c-.2.393-.231.576-.267,2.156l-.036,1.317Zm-10.641,2.1h14.71v11.5H180.7Zm13.71,1H181.7v9.5h12.71Z" transform="translate(-156.383 -2)"/><path class="b" d="M10.186-229.53a11.793,11.793,0,0,0-8.621,6.867A9.475,9.475,0,0,0,.7-218.118a9.3,9.3,0,0,0,1.136,5.064,11.627,11.627,0,0,0,8.448,6.361c1.05.173,42.846.173,43.9,0a11.627,11.627,0,0,0,8.448-6.361,9.3,9.3,0,0,0,1.136-5.064,9.428,9.428,0,0,0-.259-2.816,11.93,11.93,0,0,0-8.176-8.386L54.4-229.6l-21.8-.012C20.61-229.629,10.531-229.592,10.186-229.53Zm44.958,2.371a9.641,9.641,0,0,1,6.262,6.583,10.287,10.287,0,0,1,0,4.9,9.5,9.5,0,0,1-7.213,6.805c-.852.173-3.236.2-21.96.2s-21.108-.025-21.96-.2a9.5,9.5,0,0,1-7.213-6.805,10.236,10.236,0,0,1,0-4.891,9.589,9.589,0,0,1,5.5-6.3c1.729-.729.506-.692,23.986-.667l21.614.025Z" transform="translate(0 -209.885)"/><path class="b" d="M28.069-230.119l4.534,0,21.874.012,1,.306a12.723,12.723,0,0,1,5.407,3.257,12.593,12.593,0,0,1,3.106,5.476,9.84,9.84,0,0,1,.277,2.948,9.777,9.777,0,0,1-1.188,5.286A12.09,12.09,0,0,1,54.26-206.2c-.8.132-19.858.136-22.028.136s-21.225,0-22.029-.136a12.09,12.09,0,0,1-8.815-6.632A9.777,9.777,0,0,1,.2-218.118a9.953,9.953,0,0,1,.908-4.749A12.538,12.538,0,0,1,4.772-227.6a11.721,11.721,0,0,1,5.331-2.419h0C10.707-230.115,25.168-230.119,28.069-230.119ZM54.328-229.1,32.6-229.117l-4.533,0h0c-11.123,0-17.362.042-17.805.083a11.366,11.366,0,0,0-8.238,6.574,9,9,0,0,0-.822,4.344,8.855,8.855,0,0,0,1.084,4.842,11.089,11.089,0,0,0,8.08,6.09c.551.071,9.749.123,21.868.123s21.318-.052,21.872-.124a11.088,11.088,0,0,0,8.077-6.089,8.856,8.856,0,0,0,1.084-4.842,8.968,8.968,0,0,0-.243-2.688,11.4,11.4,0,0,0-7.839-8.036Zm-32.9,1.065c2.158,0,4.759,0,7.771.006L54.241-228l1.068.374a10.493,10.493,0,0,1,4.166,2.65,10.233,10.233,0,0,1,2.411,4.266,10.838,10.838,0,0,1,0,5.18,10.018,10.018,0,0,1-7.593,7.158c-.91.185-3.384.208-22.061.208s-21.151-.023-22.06-.208a10.019,10.019,0,0,1-7.595-7.159,10.721,10.721,0,0,1,0-5.168,10.454,10.454,0,0,1,2.156-4,9.844,9.844,0,0,1,3.625-2.619l.217-.093C9.819-227.957,10.01-228.04,21.429-228.04ZM54.07-227,29.2-227.033c-3.011,0-5.612-.006-7.77-.006-11.211,0-11.4.082-12.452.54l-.228.1a9.057,9.057,0,0,0-5.21,5.977,9.722,9.722,0,0,0,0,4.614,9.023,9.023,0,0,0,6.834,6.454c.811.165,3.467.187,21.859.187s21.048-.023,21.861-.188a9.021,9.021,0,0,0,6.831-6.451,9.84,9.84,0,0,0,0-4.628,9.093,9.093,0,0,0-5.948-6.251Z" transform="translate(0 -209.885)"/><path class="b" d="M64.914-187.464c-.593.235-.667.543-.667,2.557,0,1.037-.025,1.89-.049,1.89s-.679-.309-1.445-.679a7.83,7.83,0,0,0-1.742-.679,1.034,1.034,0,0,0-.7,1.7,10.229,10.229,0,0,0,1.754,1.025c.828.42,1.519.778,1.544.79a19.407,19.407,0,0,1-1.223,1.729c-1.05,1.4-1.272,1.766-1.272,2.124a.822.822,0,0,0,.346.729c.716.63,1.173.358,2.618-1.581.655-.865,1.2-1.581,1.223-1.581s.58.729,1.235,1.606a13.718,13.718,0,0,0,1.433,1.729.991.991,0,0,0,1.47-.865c0-.408-.173-.7-1.247-2.161a9.089,9.089,0,0,1-1.161-1.766c.037-.049.79-.445,1.643-.889,1.667-.852,1.989-1.161,1.828-1.766a1.1,1.1,0,0,0-.939-.828,8.051,8.051,0,0,0-1.717.679c-.766.371-1.408.679-1.433.679s-.062-.889-.086-1.976c-.037-1.779-.062-1.989-.284-2.211A1.086,1.086,0,0,0,64.914-187.464Z" transform="translate(-52.023 -246.776)"/><path class="b" d="M65.249-188.029h0a1.658,1.658,0,0,1,1.135.464l.007.007c.385.385.393.759.43,2.554.012.507.024.918.036,1.226l.765-.369a7.559,7.559,0,0,1,1.935-.729,1.578,1.578,0,0,1,1.423,1.2c.281,1.068-.565,1.56-2.085,2.336-.331.173-.855.446-1.207.636.182.282.487.723.9,1.275,1.109,1.5,1.347,1.881,1.347,2.461a1.49,1.49,0,0,1-1.49,1.487,1.519,1.519,0,0,1-.71-.179c-.1-.053-.225-.146-.667-.679-.273-.33-.605-.754-.935-1.194q-.537-.72-.835-1.107c-.241.314-.561.736-.824,1.084-1.072,1.439-1.673,2.082-2.391,2.082a1.468,1.468,0,0,1-.949-.421A1.309,1.309,0,0,1,60.609-177c0-.53.276-.967,1.373-2.425.416-.557.712-.966.9-1.236-.276-.142-.646-.331-1.048-.535a10.62,10.62,0,0,1-1.9-1.132,1.509,1.509,0,0,1-.252-1.635,1.444,1.444,0,0,1,1.323-.91,7.7,7.7,0,0,1,1.959.729l.766.369c.006-.3.011-.687.011-1.129,0-1.858,0-2.629.977-3.019A1.344,1.344,0,0,1,65.249-188.029Zm.438,1.181a.668.668,0,0,0-.438-.181.355.355,0,0,0-.138.025L65.1-187c-.183.073-.212.1-.256.272a9.336,9.336,0,0,0-.1,1.82c0,.5-.006.975-.016,1.347,0,.178-.01.321-.017.423,0,.059-.007.1-.012.14a.508.508,0,0,1-.506.479c-.153,0-.156,0-1.663-.729a9.648,9.648,0,0,0-1.539-.629.477.477,0,0,0-.389.307.512.512,0,0,0,.063.552,11.462,11.462,0,0,0,1.613.922l.005,0c.666.338,1.242.635,1.459.747l.084.043.071.036.058.057a.517.517,0,0,1,.066.64c-.02.036-.047.08-.085.137-.062.094-.153.226-.27.392-.223.314-.538.745-.887,1.213-.9,1.2-1.173,1.621-1.173,1.825a.338.338,0,0,0,.16.34l.016.013c.177.155.261.179.3.179.337,0,1.281-1.267,1.591-1.683.336-.444.631-.833.852-1.121.119-.155.208-.269.272-.349a.616.616,0,0,1,.5-.313.62.62,0,0,1,.5.315c.066.083.159.2.277.355.219.286.516.679.858,1.137a19.072,19.072,0,0,0,1.3,1.6.5.5,0,0,0,.213.048.484.484,0,0,0,.49-.487c0-.24-.143-.5-1.15-1.865-.338-.452-.649-.891-.874-1.234-.114-.173-.2-.315-.26-.421a.629.629,0,0,1-.012-.725c.086-.111.176-.169,1.8-1.015a7.615,7.615,0,0,0,1.483-.892c.132-.128.128-.168.093-.3l0-.007a.635.635,0,0,0-.437-.448,10.171,10.171,0,0,0-1.516.628c-1.507.729-1.507.729-1.651.729a.51.51,0,0,1-.506-.476c0-.036-.009-.083-.013-.143-.008-.1-.016-.252-.024-.439-.016-.368-.031-.867-.044-1.406A6.037,6.037,0,0,0,65.686-186.848Z" transform="translate(-52.023 -246.776)"/><path class="b" d="M167.1-187.322c-.556.247-.667.7-.667,2.68a15.656,15.656,0,0,1-.049,1.717c-.037,0-.679-.309-1.445-.679a9,9,0,0,0-1.655-.679,1.2,1.2,0,0,0-.988.877c-.136.618.173.914,1.914,1.779a10.536,10.536,0,0,1,1.606.9,18.338,18.338,0,0,1-1.235,1.754c-1,1.322-1.235,1.729-1.235,2.063a1.006,1.006,0,0,0,1.569.84,19.067,19.067,0,0,0,1.408-1.717c.753-1.013,1.2-1.507,1.272-1.433s.605.741,1.186,1.519c1.05,1.433,1.47,1.816,1.976,1.816a1.385,1.385,0,0,0,.988-1.037,7.936,7.936,0,0,0-1.309-2.05,20.162,20.162,0,0,1-1.26-1.791c.025-.012.716-.371,1.556-.79a13.109,13.109,0,0,0,1.754-1,1.067,1.067,0,0,0-.679-1.729,7.773,7.773,0,0,0-1.667.679,13.2,13.2,0,0,1-1.482.679,6.57,6.57,0,0,1-.124-1.951c0-1.877-.012-1.964-.272-2.211A.963.963,0,0,0,167.1-187.322Z" transform="translate(-141.615 -246.869)"/><path class="b" d="M167.547-187.924h0a1.568,1.568,0,0,1,1.053.466l.009.008c.427.407.427.653.427,2.573,0,.581.011.976.023,1.242.224-.1.514-.245.859-.417a7.685,7.685,0,0,1,1.891-.732,1.422,1.422,0,0,1,1.293.942,1.5,1.5,0,0,1-.26,1.641,13.364,13.364,0,0,1-1.881,1.093c-.342.171-.7.351-1.065.538.2.29.519.728.943,1.3,1.408,1.877,1.408,2.161,1.408,2.349a1.832,1.832,0,0,1-1.488,1.537c-.763,0-1.287-.529-2.38-2.02-.348-.466-.644-.851-.847-1.109-.163.188-.418.5-.807,1.026l0,.005a16.732,16.732,0,0,1-1.511,1.817l-.008.006a1.465,1.465,0,0,1-.842.267,1.516,1.516,0,0,1-1.513-1.517c0-.487.25-.929,1.336-2.364.416-.552.745-1.008.949-1.3-.257-.146-.647-.356-1.144-.6-1.595-.792-2.416-1.255-2.179-2.333a1.677,1.677,0,0,1,1.476-1.269,6.86,6.86,0,0,1,1.873.729l.768.37c.005-.253.009-.574.009-.957,0-1.966.083-2.746.964-3.137l.011,0A1.641,1.641,0,0,1,167.547-187.924Zm.377,1.2c-.2-.18-.306-.2-.377-.2a.67.67,0,0,0-.246.061c-.233.105-.365.272-.365,2.221,0,.455-.006.892-.016,1.23,0,.163-.01.292-.017.386,0,.056-.008.1-.012.133a.512.512,0,0,1-.5.469c-.153,0-.156,0-1.663-.729a12.563,12.563,0,0,0-1.462-.627.774.774,0,0,0-.475.483c-.032.147-.035.191.106.323a8.045,8.045,0,0,0,1.542.9c.429.215.841.432,1.16.611.482.272.724.408.724.738,0,.17,0,.282-1.336,2.055a6.273,6.273,0,0,0-1.134,1.762.516.516,0,0,0,.513.517.461.461,0,0,0,.254-.076c.114-.108.582-.666,1.311-1.618,1.163-1.563,1.376-1.639,1.652-1.639a.523.523,0,0,1,.373.154h0c.217.219.926,1.161,1.233,1.573.869,1.186,1.267,1.6,1.559,1.614a1.222,1.222,0,0,0,.494-.512,11.871,11.871,0,0,0-1.2-1.775c-.357-.481-.683-.927-.917-1.259-.12-.171-.213-.307-.277-.4a.583.583,0,0,1-.02-.781l.057-.057.12-.061c.524-.27,1.032-.528,1.509-.766a15.335,15.335,0,0,0,1.629-.912.53.53,0,0,0,.038-.546c-.059-.144-.185-.31-.347-.324a9.877,9.877,0,0,0-1.465.626c-1.464.732-1.593.732-1.706.732-.135,0-.457-.053-.543-.545a4.262,4.262,0,0,1-.045-.435c-.023-.353-.035-.862-.035-1.471a10.657,10.657,0,0,0-.063-1.794A.477.477,0,0,0,167.924-186.721Z" transform="translate(-141.615 -246.869)"/><path class="b" d="M269.931-187.835a1.959,1.959,0,0,0-.457.321c-.272.247-.284.333-.284,2.211a6.571,6.571,0,0,1-.124,1.951,13.2,13.2,0,0,1-1.482-.679,7.773,7.773,0,0,0-1.667-.679,1.106,1.106,0,0,0-.766,1.655,11.368,11.368,0,0,0,1.791,1.05l1.63.828-1.3,1.766a8.625,8.625,0,0,0-1.3,2.075,1.408,1.408,0,0,0,.988,1.025c.506,0,.926-.383,1.976-1.816.58-.778,1.112-1.457,1.186-1.519s.519.42,1.272,1.433a19.071,19.071,0,0,0,1.408,1.717,1.006,1.006,0,0,0,1.569-.84c0-.333-.235-.741-1.235-2.063a18.335,18.335,0,0,1-1.235-1.754,10.536,10.536,0,0,1,1.606-.9c1.741-.865,2.05-1.161,1.914-1.779a1.2,1.2,0,0,0-1.013-.877,8.048,8.048,0,0,0-1.643.679c-.741.371-1.383.679-1.42.679a11.456,11.456,0,0,1-.062-1.717c0-2-.111-2.433-.692-2.68a1.938,1.938,0,0,0-.445-.161A1.458,1.458,0,0,0,269.931-187.835Z" transform="translate(-231.646 -246.442)"/><path class="b" d="M270.159-188.411h0a1.581,1.581,0,0,1,.638.2c.906.388.992,1.17.992,3.139,0,.394,0,.713.01.96.2-.1.453-.222.749-.37a7.592,7.592,0,0,1,1.866-.732,1.692,1.692,0,0,1,1.5,1.268c.237,1.079-.584,1.543-2.18,2.335-.5.248-.886.458-1.143.6.2.294.533.75.95,1.3,1.086,1.435,1.336,1.876,1.336,2.364a1.516,1.516,0,0,1-1.513,1.517,1.465,1.465,0,0,1-.842-.267l-.008-.006A16.738,16.738,0,0,1,271-177.91l0-.005c-.389-.523-.644-.838-.807-1.026-.2.258-.5.645-.849,1.113-1.09,1.487-1.613,2.017-2.377,2.017a1.824,1.824,0,0,1-1.488-1.525c0-.164,0-.47,1.394-2.371L267.82-181l-1.1-.561a11.167,11.167,0,0,1-1.959-1.189l-.009-.012a1.543,1.543,0,0,1-.064-1.614,1.425,1.425,0,0,1,1.234-.836,7.686,7.686,0,0,1,1.891.732c.344.172.634.312.859.417.013-.266.023-.661.023-1.242,0-1.926,0-2.174.448-2.581a2.406,2.406,0,0,1,.618-.419,1.816,1.816,0,0,1,.3-.1A.521.521,0,0,1,270.159-188.411Zm1.192,5.559a.513.513,0,0,1-.5-.444c-.007-.039-.013-.086-.018-.148-.008-.094-.015-.226-.021-.393-.011-.32-.017-.758-.017-1.232,0-1.968-.126-2.109-.387-2.22l-.007,0c-.092-.041-.173-.073-.233-.1l-.048.018a1.816,1.816,0,0,0-.3.224.517.517,0,0,0-.059.058,10.545,10.545,0,0,0-.063,1.785c0,.609-.012,1.118-.035,1.471a4.262,4.262,0,0,1-.045.435c-.086.492-.408.545-.543.545-.113,0-.242,0-1.706-.732a9.913,9.913,0,0,0-1.464-.625.489.489,0,0,0-.322.288.618.618,0,0,0-.039.539,15.111,15.111,0,0,0,1.633.931l2.156,1.094-1.646,2.241a13.327,13.327,0,0,0-1.187,1.8,1.3,1.3,0,0,0,.495.5c.292-.017.69-.432,1.554-1.611.31-.415,1.018-1.357,1.236-1.577h0a.523.523,0,0,1,.373-.154h0c.276,0,.49.077,1.652,1.639.729.953,1.2,1.51,1.31,1.618a.461.461,0,0,0,.254.076.516.516,0,0,0,.513-.517,6.269,6.269,0,0,0-1.134-1.761c-1.336-1.774-1.336-1.886-1.336-2.056,0-.33.242-.466.724-.738.319-.18.73-.4,1.158-.611a8.052,8.052,0,0,0,1.544-.9c.141-.132.139-.176.106-.324a.751.751,0,0,0-.5-.483,10.694,10.694,0,0,0-1.443.625C271.531-182.852,271.486-182.852,271.351-182.852Z" transform="translate(-231.646 -246.442)"/><path class="b" d="M371.906-187.443c-.531.272-.618.63-.618,2.581a17.727,17.727,0,0,1-.049,1.828c-.037,0-.679-.309-1.445-.679a8.05,8.05,0,0,0-1.717-.679,1.1,1.1,0,0,0-.939.828c-.161.605.161.914,1.828,1.766.852.445,1.606.84,1.643.889a9.089,9.089,0,0,1-1.161,1.766c-1.075,1.457-1.247,1.754-1.247,2.161a.991.991,0,0,0,1.47.865,13.718,13.718,0,0,0,1.433-1.729c.655-.877,1.21-1.606,1.235-1.606s.568.716,1.223,1.581c1.445,1.939,1.9,2.211,2.618,1.581a.822.822,0,0,0,.346-.729c0-.358-.222-.729-1.272-2.124a19.4,19.4,0,0,1-1.223-1.729c.025-.012.716-.371,1.544-.79a10.229,10.229,0,0,0,1.754-1.025,1.034,1.034,0,0,0-.7-1.7,7.829,7.829,0,0,0-1.742.679c-.766.371-1.408.679-1.445.679s-.049-.852-.049-1.9c0-1.8-.012-1.927-.272-2.223A.981.981,0,0,0,371.906-187.443Z" transform="translate(-321.147 -246.76)"/><path class="b" d="M372.327-188.048h0a1.57,1.57,0,0,1,1.16.554l.005.006c.4.452.4.732.4,2.552,0,.448,0,.838.011,1.142l.766-.369a7.7,7.7,0,0,1,1.959-.729,1.444,1.444,0,0,1,1.323.91,1.509,1.509,0,0,1-.252,1.635,10.618,10.618,0,0,1-1.9,1.132c-.4.2-.772.394-1.049.536.191.271.488.68.9,1.238,1.1,1.456,1.372,1.894,1.372,2.424a1.309,1.309,0,0,1-.523,1.111,1.468,1.468,0,0,1-.949.421c-.718,0-1.319-.643-2.393-2.085-.262-.346-.581-.767-.822-1.081q-.3.387-.834,1.106c-.331.441-.663.865-.936,1.195-.442.534-.563.626-.667.679a1.519,1.519,0,0,1-.71.179,1.49,1.49,0,0,1-1.49-1.487c0-.579.238-.956,1.345-2.458.413-.553.718-1,.9-1.278-.353-.19-.877-.464-1.211-.638-1.515-.774-2.362-1.266-2.081-2.334a1.578,1.578,0,0,1,1.423-1.2,7.559,7.559,0,0,1,1.935.729l.766.369c.006-.287.01-.652.01-1.068,0-1.829.034-2.589.89-3.026A1.406,1.406,0,0,1,372.327-188.048Zm.416,1.221a.589.589,0,0,0-.416-.221.441.441,0,0,0-.192.049c-.231.118-.347.177-.347,2.137,0,.484-.006.948-.016,1.308,0,.172-.01.31-.017.408,0,.058-.007.1-.012.137a.507.507,0,0,1-.505.475c-.153,0-.156,0-1.663-.729a10.17,10.17,0,0,0-1.516-.628.635.635,0,0,0-.437.448l0,.007c-.036.135-.04.175.093.3a7.594,7.594,0,0,0,1.48.89c1.626.848,1.717.906,1.8,1.017a.629.629,0,0,1-.012.724c-.059.107-.146.248-.26.421-.225.343-.536.782-.876,1.237-1,1.363-1.148,1.622-1.148,1.862a.484.484,0,0,0,.49.487.5.5,0,0,0,.213-.048,19.08,19.08,0,0,0,1.3-1.6c.341-.457.638-.85.857-1.136.117-.153.21-.272.277-.355a.62.62,0,0,1,.5-.315.616.616,0,0,1,.5.313c.064.079.153.193.272.349.221.287.516.676.85,1.118.312.419,1.256,1.686,1.594,1.686.035,0,.119-.023.3-.179l.016-.013a.338.338,0,0,0,.16-.34c0-.2-.274-.63-1.172-1.824-.35-.469-.665-.9-.888-1.214-.118-.166-.208-.3-.27-.392-.038-.057-.064-.1-.085-.137a.517.517,0,0,1,.066-.641l.057-.057.072-.036.079-.041c.217-.112.792-.409,1.462-.748l.005,0a11.461,11.461,0,0,0,1.613-.922.511.511,0,0,0,.063-.552.477.477,0,0,0-.389-.307,9.645,9.645,0,0,0-1.539.629c-1.507.729-1.51.729-1.663.729a.508.508,0,0,1-.506-.479c0-.035-.008-.081-.012-.14-.006-.1-.012-.245-.017-.424-.01-.374-.016-.857-.016-1.358C372.888-186.648,372.866-186.686,372.743-186.827Z" transform="translate(-321.147 -246.76)"/></g></g></svg>