<svg xmlns="http://www.w3.org/2000/svg" xmlns:xlink="http://www.w3.org/1999/xlink" width="75" height="75" viewBox="0 0 75 75"><defs><style>.a{clip-path:url(#b);}.b{fill:#0455fe;}</style><clipPath id="b"><rect width="75" height="75"/></clipPath></defs><g id="a" class="a"><g transform="translate(13.878 489.096)"><path class="b" d="M15.589-470.816c-.6.395-.6.358-.6,4.731,0,3.757.009,3.968.184,4.244.395.661.037.625,6.448.652l5.769.028v3.252l-5.622,5.622-5.631,5.631-1.608-1.607c-1.608-1.6-1.626-1.607-2.03-1.607a1.434,1.434,0,0,0-.661.165c-.22.147-10.94,15.432-11.519,16.415a1.083,1.083,0,0,0-.028,1.213c.377.625-1.653.579,23.332.579s22.955.046,23.332-.579A1.03,1.03,0,0,0,47-433.155c-.073-.147-3.987-5.75-8.681-12.437l-8.543-12.171v-6.118c0-6.788.018-6.549-.6-6.935C28.89-471,28.743-471,22.377-471,16.048-471,15.855-470.991,15.589-470.816Zm11.8,4.685v2.572H17.38V-468.7H27.393Zm8.644,21.357c4.152,5.906,7.569,10.8,7.587,10.857.037.092-4,.119-20,.119-17.591,0-20.034-.018-20-.138s8.809-12.759,8.938-12.9a19.408,19.408,0,0,1,1.488,1.387c1.543,1.534,1.819,1.709,2.434,1.534.22-.055,1.764-1.552,6.081-5.87,3.178-3.178,5.815-5.778,5.851-5.769S31.884-450.69,36.036-444.775Z" transform="translate(0)"/><path class="b" d="M22.377-471.75c3.21,0,4.821,0,5.7.023a2.633,2.633,0,0,1,1.5.275l.053.033c.564.347.75.709.827,1.615.07.823.07,2.336.07,5.35V-458l8.407,11.977c3.888,5.54,8.543,12.185,8.734,12.526h0a1.771,1.771,0,0,1-.058,1.784l0,.005c-.268.782-.967.836-2.664.89-1.9.061-5.588.068-12.977.068H15.283c-7.389,0-11.078-.007-12.977-.068-1.7-.055-2.4-.108-2.664-.889l0-.006a1.82,1.82,0,0,1,.032-1.951l0-.008c.358-.608,3.893-5.674,5.926-8.571,1.454-2.073,2.809-3.994,3.816-5.409,1.813-2.549,1.854-2.576,2.007-2.678l.036-.022a2.173,2.173,0,0,1,1.042-.269,1.446,1.446,0,0,1,1.028.366c.289.228.678.612,1.53,1.46l1.079,1.079,10.5-10.5v-2.195l-5.947-.028c-2.6-.01-3.909-.016-4.629-.089-.908-.092-1.2-.345-1.488-.844l-.043-.074c-.294-.467-.294-.648-.294-4.636,0-2.264,0-3.3.078-3.934a1.647,1.647,0,0,1,.84-1.413l.015-.01a2.626,2.626,0,0,1,1.514-.282C17.559-471.747,19.167-471.75,22.377-471.75Zm6.41,1.57c-.3-.07-2-.07-6.41-.07-3.987,0-6.037,0-6.395.073-.045.03-.1.065-.124.085a25.452,25.452,0,0,0-.116,4.006c0,2.235,0,3.6.065,3.839l0,0,.01.017c.023.038.043.073.062.107l.028.049a40.524,40.524,0,0,0,4.791.127l.926,0,6.515.031v4.309l-12,12L14-447.735c-.7-.7-1.27-1.263-1.457-1.388H12.5a.757.757,0,0,0-.2.031c-1.133,1.474-10.754,15.2-11.334,16.176-.149.263-.1.342-.039.441l0,.008c.013.022.025.043.035.063.931.147,5.069.154,14.31.154H31.97c9.239,0,13.379-.006,14.31-.154.011-.02.023-.042.036-.063l.008-.013a.28.28,0,0,0,.023-.311c-.3-.467-3.981-5.736-8.637-12.37l-8.679-12.365v-6.928a45.868,45.868,0,0,0-.125-5.652l-.057-.035Zm-12.157.726H28.143v6.644H16.63Zm10.012,1.5H18.13v3.644h8.512ZM28.421-456.3h.093l.17.043.073.037c.181.09.181.09.9,1.095.393.552.962,1.354,1.644,2.319,1.519,2.149,3.42,4.848,5.352,7.6s3.83,5.456,5.345,7.624c2.152,3.081,2.285,3.273,2.332,3.4l.141.353-.224.333a.932.932,0,0,1-.8.359c-.163.01-.4.019-.727.026-.656.015-1.7.027-3.178.036-2.911.017-7.669.025-15.909.025-8.167,0-13.472,0-16.416-.023-1.4-.009-2.307-.022-2.862-.04-.737-.024-1.073-.035-1.322-.372a.762.762,0,0,1-.115-.674l.011-.035.014-.033c.039-.095.066-.157,4.514-6.577,3.5-5.046,4.29-6.172,4.492-6.447h0l.222-.334h.4c.328,0,.48.141.98.61.264.247.62.59,1.031.991l0,0a8.6,8.6,0,0,0,1.572,1.371.251.251,0,0,0,.045-.006c.55-.422,3.292-3.153,5.839-5.7,1.539-1.539,3-2.988,4.1-4.078.54-.533.968-.952,1.271-1.244.156-.151.278-.267.362-.346A.9.9,0,0,1,28.421-456.3Zm13.824,21.7c-1.182-1.7-3.681-5.275-6.822-9.744-3.393-4.834-6.06-8.608-7.108-10.076-.9.876-2.781,2.736-5.214,5.169-5.887,5.887-6.065,5.975-6.419,6.064a1.926,1.926,0,0,1-.526.08c-.779,0-1.369-.553-2.627-1.8-.353-.345-.627-.609-.834-.805-1.461,2.087-5.948,8.56-7.71,11.122,2.145.039,7.5.047,18.642.047C33.4-434.548,39.717-434.557,42.245-434.6Z" transform="translate(0)"/></g></g></svg>