<svg xmlns="http://www.w3.org/2000/svg" xmlns:xlink="http://www.w3.org/1999/xlink" width="75" height="75" viewBox="0 0 75 75"><defs><style>.a{clip-path:url(#b);}.b{fill:#0454fd;}</style><clipPath id="b"><rect width="75" height="75"/></clipPath></defs><g id="a" class="a"><g transform="translate(-21.136 514.643)"><path class="b" d="M247.884-511.568a1.959,1.959,0,0,0-.594.511c-.29.359-.29.47-.29,5.317v4.958l.4.442a1.268,1.268,0,0,0,1.92.069l.373-.373v-10.219l-.345-.345A1.449,1.449,0,0,0,247.884-511.568Z" transform="translate(-189.502 0)"/><path class="b" d="M248.295-512.393a2.285,2.285,0,0,1,1.583.654l.565.565v10.84l-.593.592a2.061,2.061,0,0,1-1.458.626,2.065,2.065,0,0,1-1.55-.725l-.592-.653v-5.247c0-2.452,0-3.683.037-4.381a2.073,2.073,0,0,1,.419-1.407,2.617,2.617,0,0,1,.889-.732l.006,0A1.832,1.832,0,0,1,248.295-512.393Zm.648,1.84-.126-.126a.786.786,0,0,0-.523-.214.387.387,0,0,0-.113.014,1.58,1.58,0,0,0-.306.29l-.034.043a42.046,42.046,0,0,0-.092,4.8v4.668l.212.234a.583.583,0,0,0,.43.223.568.568,0,0,0,.4-.187l.153-.153Z" transform="translate(-189.502 0)"/><path class="b" d="M118.331-475.245a1.436,1.436,0,0,0-.76,1.519c.11.594,6.283,6.767,6.877,6.877a1.407,1.407,0,0,0,1.505-.759c.373-.884.235-1.091-2.872-4.226-1.6-1.63-3.066-3.066-3.259-3.19A1.426,1.426,0,0,0,118.331-475.245Z" transform="translate(-77.929 -31.268)"/><path class="b" d="M118.9-476.115h0a2.3,2.3,0,0,1,1.365.485h0c.469.347,2.672,2.578,3.352,3.27a27.745,27.745,0,0,1,2.827,3.061,1.8,1.8,0,0,1,.2,1.982,2.15,2.15,0,0,1-1.96,1.239,2.106,2.106,0,0,1-.367-.032h-.006c-.246-.046-.511-.16-1.677-1.22-.651-.592-1.48-1.389-2.336-2.244s-1.653-1.685-2.244-2.336c-1.06-1.166-1.174-1.43-1.22-1.677v-.006a2.182,2.182,0,0,1,1.192-2.335l.024-.01A2.261,2.261,0,0,1,118.9-476.115Zm.5,1.71-.02-.014a.8.8,0,0,0-.481-.2.75.75,0,0,0-.272.059.7.7,0,0,0-.326.614,36.994,36.994,0,0,0,3.058,3.305,37,37,0,0,0,3.3,3.058h.02a.653.653,0,0,0,.578-.321c.122-.288.122-.288-.06-.556a29.745,29.745,0,0,0-2.653-2.85C120.794-473.092,119.606-474.24,119.4-474.4Z" transform="translate(-77.929 -31.268)"/><path class="b" d="M341.375-475.817c-.525.1-6.711,6.339-6.808,6.877a1.406,1.406,0,0,0,1.63,1.629c.594-.11,6.767-6.283,6.877-6.877a1.407,1.407,0,0,0-.787-1.519c-.276-.11-.511-.193-.525-.193A2.224,2.224,0,0,1,341.375-475.817Z" transform="translate(-264.958 -30.807)"/><path class="b" d="M341.586-476.65h.177c.12,0,.186,0,.8.247l.015.006a2.145,2.145,0,0,1,1.233,2.338l0,.009c-.046.246-.16.511-1.22,1.677-.592.651-1.389,1.48-2.244,2.336s-1.685,1.653-2.336,2.244c-1.166,1.06-1.43,1.174-1.677,1.22l-.01,0a2.221,2.221,0,0,1-.374.032,2.15,2.15,0,0,1-1.647-.766,2.159,2.159,0,0,1-.475-1.761v-.006c.044-.244.152-.491,1.214-1.66.588-.648,1.382-1.478,2.235-2.34s1.674-1.66,2.316-2.256c1.161-1.076,1.4-1.181,1.645-1.227l.03,0c.1-.014.173-.03.215-.04Zm.414,1.636c-.1-.041-.195-.076-.269-.1l-.117.022a40.938,40.938,0,0,0-3.272,3.081,41.112,41.112,0,0,0-3.045,3.3.65.65,0,0,0,.153.445.653.653,0,0,0,.531.233,36.98,36.98,0,0,0,3.305-3.058,37.037,37.037,0,0,0,3.058-3.3A.654.654,0,0,0,342-475.014Z" transform="translate(-264.958 -30.807)"/><path class="b" d="M38.966-385.864c-.442.193-11.669,14.2-11.807,14.707a1.419,1.419,0,0,0,.055.718c.083.207,7,8.672,15.384,18.822,10.633,12.87,15.384,18.519,15.7,18.67.635.318,1.119.166,1.781-.525,1.132-1.174,30.326-36.623,30.464-36.968a1.43,1.43,0,0,0,.055-.718c-.138-.511-11.365-14.514-11.807-14.707C78.254-386.112,39.5-386.112,38.966-385.864Zm16.5,3.245c-6.67,8.369-7.43,9.28-7.581,9.114-.11-.138-5.427-8.962-5.814-9.68-.028-.055,3.093-.1,6.932-.1h7Zm20.217-.566c-.387.718-5.7,9.542-5.814,9.68-.152.166-.911-.746-7.581-9.114l-.539-.663h7C72.592-383.281,75.713-383.24,75.685-383.185Zm-12.663,5.91L67-372.3l-1.588.069c-1.574.069-1.588.069-1.989.525a1.128,1.128,0,0,0,0,1.712l.4.456,2.085.041a11.753,11.753,0,0,1,2.085.138c.014.193-9.045,30.27-9.114,30.27s-9.128-30.077-9.114-30.27a11.513,11.513,0,0,1,2.071-.138c2.044-.041,2.071-.041,2.444-.428a1.3,1.3,0,0,0,0-1.864c-.359-.359-.47-.373-1.947-.442l-1.574-.069,4-5.013c2.21-2.748,4.074-4.985,4.157-4.958S60.84-379.995,63.022-377.274Zm-20.562.152,2.886,4.819-3.535.041c-1.933.014-5.068.014-6.96,0l-3.425-.041,3.95-4.944a52.484,52.484,0,0,1,4.074-4.806C39.518-381.983,40.872-379.76,42.46-377.122Zm40.006-.014,3.867,4.833-3.425.041c-1.892.014-5.027.014-6.96,0l-3.535-.041,2.776-4.626c3.356-5.607,3.162-5.3,3.3-5.165C78.558-382.025,80.339-379.8,82.466-377.136ZM51.174-354.944c2.4,8,4.364,14.541,4.35,14.555-.041.028-23.9-28.834-23.959-28.972-.028-.055,3.4-.11,7.6-.11h7.65Zm35.021-14.417c-.055.138-23.918,29-23.959,28.972-.014-.014,1.947-6.56,4.35-14.555l4.364-14.528H78.6C82.8-369.472,86.222-369.416,86.194-369.361Z" transform="translate(0 -108.249)"/><path class="b" d="M58.879-386.8c5.137,0,9.948.017,13.545.047,1.935.016,3.463.036,4.54.058,1.878.039,1.971.071,2.136.147.2.089.335.164,2.282,2.513,1.078,1.3,2.5,3.054,4.013,4.936s2.905,3.644,3.956,5c1.884,2.424,1.923,2.568,1.973,2.751l.009.039a2.162,2.162,0,0,1-.092,1.154,11.632,11.632,0,0,1-1.416,1.833c-.789.974-1.919,2.36-3.359,4.12-2.712,3.315-6.335,7.725-10.2,12.418C69.441-343.506,61.25-333.6,60.62-332.95a2.466,2.466,0,0,1-1.73.913,2.043,2.043,0,0,1-.921-.235c-.221-.106-.41-.218-4.227-4.757-2.525-3-6.36-7.618-11.723-14.11-4.053-4.907-7.891-9.575-10.807-13.143-4.52-5.53-4.632-5.722-4.692-5.872a2.151,2.151,0,0,1-.1-1.161l.009-.039c.049-.183.088-.327,1.973-2.751,1.051-1.351,2.455-3.125,3.956-5s2.935-3.635,4.013-4.936c1.947-2.35,2.08-2.425,2.282-2.513.165-.076.259-.108,2.136-.147,1.077-.023,2.6-.042,4.54-.058C48.931-386.783,53.742-386.8,58.879-386.8Zm19.582,1.652c-1.4-.089-9.384-.152-19.582-.152s-18.185.063-19.582.152c-.56.6-2.643,3.1-5.783,7.012-3.239,4.038-5.253,6.648-5.628,7.216a.957.957,0,0,0,.011.15c.656.88,6.781,8.385,15.28,18.676,6.234,7.546,14.573,17.61,15.522,18.507a.513.513,0,0,0,.192.05c.14,0,.365-.157.649-.453.473-.49,6.771-8.076,15.317-18.449,7.985-9.691,14.3-17.41,15-18.333a.938.938,0,0,0,.011-.147c-.375-.568-2.389-3.179-5.628-7.216C81.1-382.05,79.022-384.549,78.461-385.148Zm-29.456,1.117h8.577l-1.53,1.883c-3.072,3.854-4.942,6.192-6.028,7.508-.54.654-.906,1.08-1.153,1.342a1.345,1.345,0,0,1-.946.561.8.8,0,0,1-.591-.26l-.033-.038c-.229-.286-5.646-9.342-5.889-9.793l-.01-.02-.187-.374.22-.357c.224-.362.522-.372,1.177-.393.356-.012.862-.022,1.5-.03C45.412-384.022,47.149-384.031,49.005-384.031Zm5.434,1.5H49.005c-2.5,0-4.49.017-5.661.039,1.184,2,3.7,6.173,4.721,7.85C48.937-375.644,50.934-378.133,54.44-382.531Zm5.736-1.5h8.577c1.857,0,3.593.01,4.889.027.642.009,1.148.019,1.5.03.654.021.953.031,1.177.393l.22.356-.2.4c-.243.451-5.66,9.507-5.888,9.793l-.033.038a.8.8,0,0,1-.591.26,1.345,1.345,0,0,1-.946-.561c-.247-.261-.613-.687-1.152-1.341-1.087-1.317-2.957-3.654-6.028-7.508Zm14.238,1.539c-1.171-.023-3.157-.039-5.661-.039H63.319c3.506,4.4,5.5,6.888,6.374,7.889C70.713-376.318,73.23-380.494,74.414-382.492Zm-15.495-.532h.122l.085.028c.241.063.36.2.731.642.215.255.519.621.9,1.089.741.9,1.752,2.154,2.848,3.521l4.9,6.126-3.07.134a8.373,8.373,0,0,0-1.292.1,2.207,2.207,0,0,0-.159.171l-.007.008c-.266.294-.266.412,0,.706l.007.008.182.208,1.755.035c.587.014,1.12.035,1.505.06.212.014.373.028.494.043a1.831,1.831,0,0,1,.207.036.775.775,0,0,1,.612.7h0c.012.17.012.17-.412,1.616-.237.81-.581,1.969-1.021,3.447-.815,2.736-1.92,6.42-3.11,10.373-1.184,3.932-2.3,7.61-3.132,10.357-.448,1.471-.8,2.624-1.048,3.428-.454,1.468-.454,1.468-.589,1.614l-.222.239h-.653l-.223-.239c-.135-.145-.135-.145-.589-1.614-.248-.8-.6-1.956-1.048-3.428-.836-2.747-1.948-6.425-3.132-10.357-1.19-3.953-2.3-7.637-3.11-10.373-.44-1.478-.784-2.638-1.021-3.447-.424-1.446-.424-1.446-.412-1.616h0a.775.775,0,0,1,.609-.7,1.8,1.8,0,0,1,.206-.036c.12-.015.28-.029.49-.043.383-.025.914-.046,1.5-.06h.012a12.485,12.485,0,0,0,1.8-.09c.024-.019.079-.077.11-.109l.01-.01a.553.553,0,0,0,0-.808c-.107-.107-.108-.107-.182-.124a10.524,10.524,0,0,0-1.266-.1l-3.046-.134,4.926-6.166c1.1-1.365,2.117-2.613,2.873-3.516.389-.465.7-.828.923-1.08C58.341-382.795,58.543-383.023,58.919-383.023Zm6.572,10.036-3.054-3.818c-1.688-2.105-2.9-3.6-3.537-4.356-.646.748-1.887,2.246-3.551,4.316l-3.082,3.858.1,0c1.512.071,1.871.087,2.445.661l.007.007a2.06,2.06,0,0,1,0,2.913c-.584.6-.813.609-2.956.653h-.009c-.46.011-.835.025-1.126.04,1.145,3.926,6.266,20.946,8.153,27.112,1.888-6.167,7.009-23.185,8.153-27.112-.294-.015-.674-.029-1.142-.041l-2.412-.048-.615-.7a1.868,1.868,0,0,1,0-2.711c.608-.691.9-.7,2.509-.774ZM78.423-382.9a.789.789,0,0,1,.625.307l-.025-.027c.048.049.279.316,4.028,5.015l4.826,6.032-4.961.06c-.92.007-2.153.01-3.474.01s-2.564,0-3.5-.01l-4.845-.057,3.923-6.54c1.176-1.966,1.824-3.049,2.214-3.676C77.709-382.55,77.926-382.9,78.423-382.9Zm6.363,9.865-2.907-3.633c-1.674-2.1-2.8-3.505-3.411-4.263-.407.659-1.1,1.82-2.162,3.592l-.475.794-2.1,3.506,2.229.026c.93.007,2.169.01,3.487.01s2.546,0,3.459-.01ZM39.444-382.8a.752.752,0,0,1,.535.221c.08.08.171.171,3.123,5.073l3.558,5.941-4.841.057c-.94.007-2.184.01-3.5.01s-2.553,0-3.47-.01l-4.964-.06,4.908-6.143c1.087-1.359,2.1-2.6,2.858-3.49.366-.431.661-.77.878-1.006C38.853-382.568,39.069-382.8,39.444-382.8Zm4.587,9.767-2.215-3.7c-1.191-1.977-2.02-3.341-2.495-4.114-.634.725-1.774,2.09-3.36,4.073l-2.991,3.744,1.89.023c.91.007,2.138.01,3.455.01s2.557,0,3.49-.01Zm-4.873,2.816h8.208l4.524,15.062c1.309,4.355,2.345,7.811,3.081,10.272.408,1.364.722,2.417.933,3.131.11.372.2.661.253.858.029.1.052.178.066.231a.785.785,0,0,1-.172.81l-.22.22h-.311a.813.813,0,0,1-.643-.344l-.209-.247c-.179-.212-.439-.523-.769-.918-.635-.761-1.55-1.861-2.718-3.27-2.163-2.607-5.083-6.133-8.221-9.928-3.121-3.774-6.04-7.309-8.22-9.954-1.167-1.416-2.081-2.527-2.717-3.3a12.425,12.425,0,0,1-1.146-1.449l-.175-.35.22-.357a.859.859,0,0,1,.755-.375c.111-.007.271-.014.474-.021.4-.013.95-.025,1.648-.035C35.282-370.21,37.184-370.222,39.159-370.222Zm7.093,1.5H39.159c-2.678,0-4.786.021-6.074.046,3.438,4.194,15.583,18.884,20.7,25.037-.643-2.151-1.677-5.6-3.326-11.09Zm24.139-1.5H78.6c1.975,0,3.877.012,5.356.034.7.01,1.252.022,1.648.035.2.007.363.014.474.021a.859.859,0,0,1,.755.375l.22.356-.175.351a12.311,12.311,0,0,1-1.146,1.45c-.636.776-1.55,1.887-2.716,3.3-2.188,2.655-5.107,6.19-8.219,9.954-3.146,3.8-6.066,7.331-8.221,9.928-1.169,1.409-2.084,2.509-2.719,3.27-.33.4-.59.707-.769.918l-.21.247a.813.813,0,0,1-.642.343h-.31l-.22-.219a.785.785,0,0,1-.173-.811c.015-.052.037-.13.066-.231.057-.2.142-.486.253-.858.211-.713.525-1.767.933-3.131.736-2.46,1.773-5.916,3.082-10.272Zm14.282,1.546c-1.288-.025-3.4-.046-6.074-.046H71.507l-4.2,13.993c-1.65,5.49-2.684,8.94-3.326,11.091C69.088-349.788,81.235-364.481,84.673-368.675Z" transform="translate(0 -108.249)"/><path class="b" d="M247.884-285.665a1.676,1.676,0,0,0-.884,1.27,1.424,1.424,0,0,0,.4.842,1.3,1.3,0,0,0,2.292-.856A1.361,1.361,0,0,0,247.884-285.665Z" transform="translate(-189.502 -194.694)"/><path class="b" d="M248.333-286.505a2.132,2.132,0,0,1,2.11,2.1,2.033,2.033,0,0,1-2.037,2.072,2.083,2.083,0,0,1-1.564-.716,2.131,2.131,0,0,1-.592-1.343,2.386,2.386,0,0,1,1.333-1.958l.008,0A1.89,1.89,0,0,1,248.333-286.505Zm.073,2.669a.538.538,0,0,0,.537-.572.646.646,0,0,0-.61-.6.4.4,0,0,0-.152.029,1.053,1.053,0,0,0-.43.575.913.913,0,0,0,.207.347A.592.592,0,0,0,248.406-283.836Z" transform="translate(-189.502 -194.694)"/></g></g></svg>