<svg xmlns="http://www.w3.org/2000/svg" xmlns:xlink="http://www.w3.org/1999/xlink" width="75" height="75" viewBox="0 0 75 75"><defs><style>.a{clip-path:url(#b);}.b{fill:#0454fd;}</style><clipPath id="b"><rect width="75" height="75"/></clipPath></defs><g id="a" class="a"><g transform="translate(6.953 519.466)"><path class="b" d="M49.152-510.285c-2.256.94-4.3,1.856-4.523,2.033a2.852,2.852,0,0,0-.9,2.831l.082.423-15.356,6.438c-8.459,3.536-15.5,6.532-15.661,6.638a1.885,1.885,0,0,0-.587,2.479c.129.329.235.611.235.634s-1.375.6-3.043,1.292L6.34-486.247l-.517-.54c-.7-.74-1.281-.775-2.808-.129-1.187.505-1.457.681-1.739,1.151-.446.728-.352,1.1,1.292,5.111,1.316,3.184,1.6,3.783,1.95,4.1.67.6,1.187.611,2.491.094,1.88-.752,2.326-1.234,2.209-2.35L9.16-479.4l3.066-1.269c1.68-.693,3.066-1.245,3.078-1.234a4.458,4.458,0,0,0,1.116,1.7c.764.517.975.458,6.438-1.833,2.773-1.163,5.1-2.126,5.181-2.15a.313.313,0,0,1,.294.153c.094.153-1.516,3.137-8.224,15.215-4.594,8.271-8.459,15.238-8.6,15.508-.211.4-.223.54-.117.834a.849.849,0,0,0,1.1.529c.376-.176.294-.035,4.183-7.049l3.337-6.015H30.178v12.677l.305.235a.792.792,0,0,0,1.339-.388c.07-.211.117-2.491.117-6.427v-6.1h10.08l3.513,6.309c1.927,3.478,3.619,6.45,3.771,6.6a.6.6,0,0,0,.646.2.876.876,0,0,0,.764-.893c-.023-.164-3.9-7.214-8.6-15.685-5.381-9.681-8.518-15.438-8.459-15.52a4.438,4.438,0,0,0,1.057-2.455l.07-.6,7.014-2.949c6-2.526,7.014-2.914,7.12-2.761a3.017,3.017,0,0,0,2.737,1.527,81.592,81.592,0,0,0,8.929-3.654c.317-.294.329-.681.035-1.339-.223-.482-.223-.493.012-1.351a14.494,14.494,0,0,0,.211-4.723,11.383,11.383,0,0,0-5.357-7.766,1.88,1.88,0,0,1-1.046-1.069c-.27-.611-.564-.869-.963-.869C53.358-511.988,51.42-511.225,49.152-510.285Zm4.519,6.511c1.245,3.031,4.2,5.543,4.539,6.354l.611,1.492-3.583,1.48c-1.974.811-3.713,1.48-3.865,1.48-.6,0-.8-.376-3.372-6.638-1.386-3.36-2.538-6.215-2.549-6.344a.948.948,0,0,1,.153-.8c.129-.188,7-3.125,7.319-3.137A13.7,13.7,0,0,0,53.672-503.774Zm3.2-2.881c1.41,1.527,3.077,5.314,3.006,7.229l-.365,3.4-2.906-3.578c-.587-1.445-3.172-5.348-3.477-6.064l-.111-3.207,3.266,1.635C56.484-507.042,56.754-506.784,56.871-506.654Zm-10.5,7.707c.987,2.4,1.786,4.371,1.762,4.382-.035.035-13.405,5.639-13.746,5.769-.141.059-.4-.094-.846-.493a3.648,3.648,0,0,0-3.983-.7,3.433,3.433,0,0,0-2.174,3.207l-.047.963-3.243,1.363c-1.786.74-3.254,1.339-3.278,1.316l-.2-4.371L17.2-491.886c.082-.094,27.034-11.4,27.2-11.408C44.523-503.306,45.1-502.014,46.368-498.947ZM19.3-487.308a6.547,6.547,0,0,1-.215,4.9,8.358,8.358,0,0,1-1.762.7c-.117-.117-3.607-8.706-3.572-8.753.059-.047,1.645-.728,1.739-.74A9.054,9.054,0,0,1,19.3-487.308Zm12.661-1.007a1.942,1.942,0,0,1-.035,3.372,2.351,2.351,0,0,1-2.009-.094,2.138,2.138,0,0,1-.8-1.586A1.9,1.9,0,0,1,31.964-488.315Zm-18.093,2.925a10.78,10.78,0,0,1,.634,1.774c-.035.094-5.616,2.479-5.98,2.549a8.665,8.665,0,0,1-.846-1.751l-.74-1.774L9.9-485.824c1.621-.681,3.019-1.234,3.113-1.222A5.406,5.406,0,0,1,13.871-485.389Zm-6.932,2.941a8.939,8.939,0,0,1,.529,3.767,6.193,6.193,0,0,1-1.809.822c-.047-.035-2.855-6.873-2.855-6.967a5.385,5.385,0,0,1,1.645-.728C4.578-485.565,5.952-484.821,6.939-482.448Zm23.239,7.515c0,6.344-.035,8.071-.153,8.107-.07.035-2.138.047-4.57.035l-4.429-.035,4.488-8.083c2.467-4.441,4.523-8.071,4.57-8.071S30.178-479.362,30.178-474.933Zm6.391.094c2.432,4.382,4.418,7.989,4.418,8.013s-2.033.059-4.523.059H31.941v-8.13c0-4.664.047-8.083.106-8.024S34.138-479.221,36.57-474.839Z"/><path class="b" d="M53.439-512.75h.037a1.892,1.892,0,0,1,1.649,1.316c.158.355.178.4.736.723a11.908,11.908,0,0,1,3.744,3.5,12.351,12.351,0,0,1,1.976,4.784,15.119,15.119,0,0,1-.226,5.052,5.642,5.642,0,0,0-.151.619c.013.041.061.144.1.221l0,.01a1.837,1.837,0,0,1-.208,2.193c-.111.1-.425.384-4.6,2.087a45.056,45.056,0,0,1-4.765,1.764h-.011c-.095.009-.191.013-.286.013a3.717,3.717,0,0,1-2.865-1.483c-.89.3-3.385,1.344-6.484,2.648l-6.611,2.78-.021.175a4.983,4.983,0,0,1-.938,2.452c.612,1.212,3.017,5.644,8.252,15.062,2.431,4.383,4.525,8.173,6.055,10.961,2.6,4.729,2.6,4.793,2.632,4.982a1.6,1.6,0,0,1-1.359,1.734,1.739,1.739,0,0,1-.347.038,1.341,1.341,0,0,1-.962-.429l-.015-.014a14.157,14.157,0,0,1-1.341-2.213c-.692-1.214-1.6-2.832-2.556-4.556l-3.3-5.923h-8.89v5.348c0,6.2-.105,6.512-.156,6.664l-.011.03a1.561,1.561,0,0,1-1.448,1.1,1.716,1.716,0,0,1-1.051-.39l-.6-.459v-12.3H20.457l-3.288,5.929c-1.825,3.291-2.741,4.943-3.246,5.8-.514.867-.7,1.079-1.09,1.261l-.025.012a1.439,1.439,0,0,1-.6.13,1.629,1.629,0,0,1-1.522-1.094,1.569,1.569,0,0,1,.163-1.432c.192-.368,6.637-11.973,8.607-15.522,3.982-7.168,6.5-11.73,7.569-13.778-.918.38-2.273.945-3.874,1.616-3.992,1.674-5.179,2.157-6,2.157a1.9,1.9,0,0,1-1.138-.389,4.106,4.106,0,0,1-1.09-1.38c-.544.216-1.406.565-2.406.977l-2.551,1.055,0,.033c.175,1.662-.764,2.356-2.676,3.121a4.663,4.663,0,0,1-1.708.426A2.264,2.264,0,0,1,4.019-476c-.492-.443-.8-1.119-2.143-4.373-1.626-3.96-1.92-4.676-1.24-5.787.417-.693.9-.949,2.086-1.452a5.019,5.019,0,0,1,1.93-.517,2.292,2.292,0,0,1,1.715.819l.161.168,2.58-1.072c.481-.2,1.66-.69,2.383-1a2.629,2.629,0,0,1,.872-3.332l.023-.015c.321-.206,10.6-4.536,15.777-6.7l14.795-6.2a3.558,3.558,0,0,1,1.207-3.386c.455-.359,4-1.843,4.7-2.137,1.069-.443,2.127-.873,2.98-1.211a7.517,7.517,0,0,1,1.557-.559Zm6.651,10.506a10.676,10.676,0,0,0-4.984-7.171,2.581,2.581,0,0,1-1.352-1.411,1.339,1.339,0,0,0-.237-.4c-.493.178-2.066.8-4.077,1.634-2.462,1.026-4.1,1.779-4.361,1.941a2.11,2.11,0,0,0-.619,2.083l.2,1.026-15.918,6.674c-8.145,3.405-14.912,6.284-15.563,6.591-.35.256-.638.649-.278,1.559.279.71.288.76.288.91a.76.76,0,0,1-.491.712c-.045.021-.112.052-.2.089-.153.067-.37.16-.665.285-.483.2-1.167.49-2.151.9l-3.529,1.466-.872-.912c-.313-.328-.47-.355-.63-.355a4,4,0,0,0-1.344.4c-1.182.5-1.242.6-1.388.846l0,.006c-.124.2-.17.277-.05.75a35.915,35.915,0,0,0,1.4,3.683c1.127,2.726,1.516,3.61,1.758,3.828.283.253.421.274.56.274a3.557,3.557,0,0,0,1.153-.32c1.828-.731,1.8-1.013,1.739-1.574l-.115-1.146,3.581-1.482c.777-.321,1.542-.632,2.155-.877,1.033-.413,1.039-.413,1.208-.413h.311l.34.339.057.158a4.261,4.261,0,0,0,.818,1.327l.013.009c.2.137.23.137.3.137.536,0,2.05-.625,5.423-2.04.206-.086,5.049-2.118,5.265-2.179l.025-.007a.908.908,0,0,1,.22-.027,1.08,1.08,0,0,1,.88.491l.015.023c.254.413.057.811-.269,1.469-.249.5-.665,1.294-1.271,2.416-1.18,2.183-3.111,5.685-6.667,12.087-5.171,9.311-8.463,15.247-8.591,15.491a1.939,1.939,0,0,0-.091.19c0,.011.008.025.015.043l.006.017a.142.142,0,0,0,.1.077l0,0h0c.243-.275,1.134-1.881,3.651-6.421l3.717-6.7H30.928V-452.7l.018.014a.478.478,0,0,0,.107.066.415.415,0,0,0,.045-.076c.022-.213.092-1.282.092-6.214v-6.848H42.462l3.727,6.694c1.942,3.505,3.328,5.927,3.649,6.423a.306.306,0,0,0,.095-.049c-.518-1.009-3.232-5.972-8.474-15.42-2.636-4.742-4.8-8.672-6.272-11.365-.728-1.335-1.284-2.369-1.654-3.072-.188-.357-.331-.634-.424-.823-.165-.334-.335-.68-.063-1.061l.017-.023a3.723,3.723,0,0,0,.906-2.09l.121-1.028,7.417-3.118c6.186-2.6,6.868-2.848,7.326-2.848a.835.835,0,0,1,.7.352l.015.022a2.342,2.342,0,0,0,1.888,1.192c.042,0,.084,0,.126,0,.709-.15,5.729-2.177,7.758-3.1l-.151-.187-3.645,1.506c-.977.4-1.911.774-2.633,1.051-1.267.486-1.367.486-1.518.486-.766,0-1.158-.485-1.614-1.38-.447-.877-1.089-2.406-2.451-5.723-.689-1.671-1.326-3.23-1.792-4.389a12.649,12.649,0,0,1-.809-2.161,1.692,1.692,0,0,1,.293-1.32c.127-.18.238-.26,1.45-.809.647-.293,1.517-.674,2.45-1.073,3.618-1.548,3.855-1.557,4-1.562h.356l.225.242a.964.964,0,0,1,.185.846c0,.044-.007.094-.012.148l3.078,1.541.086.086.211.209c.157.155.306.3.4.4A15.264,15.264,0,0,1,60.089-502.244Zm-2.57,5.114a10.14,10.14,0,0,0-.947-1.156,19.533,19.533,0,0,1-3.594-5.2,12.9,12.9,0,0,1-.864-5.3c-1.72.694-5.127,2.162-5.931,2.571,0,.028,0,.068.008.124.135.394,1.032,2.636,2.5,6.205a58.4,58.4,0,0,0,2.7,6.14c.439-.148,1.677-.618,3.556-1.39l2.891-1.194Zm-1.678-9.495-2.029-1.016.062,1.789c.174.333.637,1.091,1.087,1.827a43.026,43.026,0,0,1,2.3,4.031l1.7,2.1.17-1.579c.043-1.62-1.47-5.218-2.809-6.668l0,0c-.064-.07-.212-.215-.342-.344ZM44.4-504.044a.994.994,0,0,1,.845.64c.1.186.233.457.4.83.307.68.745,1.711,1.419,3.34.513,1.245.949,2.314,1.263,3.092.166.411.293.732.379.953.047.121.081.211.1.277.016.045.028.08.035.1a.753.753,0,0,1-.182.774h0a.534.534,0,0,1-.141.111q-.027.016-.054.03v0c-.1.051-.283.127-.628.274l-1.53.646c-1.186.5-2.835,1.193-4.645,1.952-2.66,1.116-6.671,2.8-7,2.924a.914.914,0,0,1-.344.066,2.068,2.068,0,0,1-1.281-.7,3.124,3.124,0,0,0-2.056-.828,2.622,2.622,0,0,0-1.111.245l-.006,0a2.7,2.7,0,0,0-1.735,2.564l-.07,1.432-3.678,1.546c-3.318,1.375-3.365,1.375-3.566,1.375h-.311l-.428-.426,0-.067a5.242,5.242,0,0,1-.345.868l-.019.03c-.117.176-.223.286-1.179.672a3.283,3.283,0,0,1-1.193.371.765.765,0,0,1-.551-.23c-.121-.121-.15-.165-.768-1.646-.326-.782-.764-1.847-1.233-3-.449-1.1-.888-2.19-1.2-2.984-.169-.425-.3-.759-.391-.994-.049-.128-.086-.225-.111-.295a.812.812,0,0,1,.072-.809l.057-.076.074-.059a4.711,4.711,0,0,1,1.03-.487,4.549,4.549,0,0,1,1.084-.411l.046-.006h.047c.174,0,.284.016.87.385.081.051.175.112.28.182l-.42-.537.409-.467c.128-.146.128-.146,1.456-.713.72-.307,1.755-.746,3.078-1.3,2.451-1.035,5.756-2.425,9.309-3.915,3.537-1.483,6.848-2.868,9.324-3.9a40.838,40.838,0,0,1,4.535-1.829l.027,0Zm2.781,9.073c-.267-.671-.762-1.892-1.5-3.69-.347-.839-1.163-2.81-1.588-3.7-3.417,1.4-21.541,9-25.7,10.778l2.974,3.8.161,3.575c.476-.192,1.2-.488,2.288-.94l2.8-1.178.024-.492a4.2,4.2,0,0,1,2.611-3.853,4.112,4.112,0,0,1,1.739-.382,4.622,4.622,0,0,1,3.055,1.209c.142.127.243.208.311.259C35.931-490.243,44.723-493.932,47.177-494.971ZM18.5-482.934a5.713,5.713,0,0,0,.11-4.087,8.132,8.132,0,0,0-3.173-3.349c-.2.084-.486.2-.739.313.632,1.616,2.38,5.9,3.036,7.444C18-482.719,18.311-482.846,18.5-482.934ZM31.005-489.3a2.874,2.874,0,0,1,1.294.313l0,0a2.571,2.571,0,0,1,1.37,2.3,2.664,2.664,0,0,1-1.392,2.4,2.69,2.69,0,0,1-1.243.27,2.829,2.829,0,0,1-1.561-.419l-.005,0a2.9,2.9,0,0,1-1.1-2.188A2.627,2.627,0,0,1,31.005-489.3Zm.621,1.654a1.388,1.388,0,0,0-.621-.154,1.118,1.118,0,0,0-1.134,1.176,1.407,1.407,0,0,0,.493.982,1.448,1.448,0,0,0,.675.13,1.252,1.252,0,0,0,.531-.09l.01-.005a1.178,1.178,0,0,0,.6-1.063A1.066,1.066,0,0,0,31.626-487.645ZM13.01-487.8h.047l.022,0c.491.038.728.5.92.871.163.316.358.747.565,1.246.788,1.9.731,2.064.653,2.3l-.009.026c-.113.3-.342.41-.633.548-.157.075-.38.176-.662.3-.523.233-1.226.539-1.98.86a27.931,27.931,0,0,1-3.265,1.312l-.071.014H8.524a.748.748,0,0,1-.331-.071,10.48,10.48,0,0,1,.027,1.552c0,.036,0,.065,0,.089a.771.771,0,0,1-.135.507c-.088.128-.189.272-1.145.712-.923.424-1.129.424-1.252.424a.789.789,0,0,1-.477-.158c-.178-.133-.18-.139-.706-1.4-.262-.628-.619-1.493-.981-2.375-1.466-3.574-1.466-3.6-1.466-3.79,0-.567.538-.807,1.162-1.085A3.647,3.647,0,0,1,4.4-486.3l.018,0h.037c.518,0,1.2.622,1.463.89.091.091.189.2.293.316l3.4-1.418C12.656-487.8,12.861-487.8,13.01-487.8Zm.6,3.789c-.1-.274-.243-.649-.428-1.094-.2-.487-.359-.827-.471-1.052-.486.185-1.339.526-2.517,1.021l-2.27.946.451,1.082c.192.469.362.848.49,1.118C9.98-482.433,12.509-483.51,13.606-484.007Zm-6.877,4.915a7.547,7.547,0,0,0-.484-3.072,5.652,5.652,0,0,0-1.875-2.6c-.17.061-.419.164-.637.263.51,1.277,1.789,4.4,2.341,5.712C6.3-478.882,6.544-479,6.729-479.092Zm23.355-4.638a.76.76,0,0,1,.755.7c.006.044.01.1.015.171.007.116.014.277.02.5.011.4.021.991.03,1.741.016,1.456.025,3.478.025,5.693,0,3.32-.01,5.244-.032,6.434-.012.627-.028,1.052-.049,1.339-.025.336-.062.835-.525,1.024-.177.082-.4.1-3.136.1-.544,0-1.127,0-1.734,0l-5.694-.045,5.1-9.187c1.192-2.146,2.327-4.172,3.2-5.707.422-.745.756-1.33.995-1.741.122-.211.219-.374.286-.485A.855.855,0,0,1,30.084-483.731Zm-.716,16.181c.055-1.227.06-4.4.06-7.384,0-2.25-.009-4.066-.022-5.391-.807,1.425-1.938,3.441-3.237,5.779l-3.875,6.979,3.167.025c.6,0,1.182,0,1.724,0C28.257-467.536,28.948-467.542,29.368-467.549Zm2.677-16.123h.311l.245.245.022.026c.059.071.089.107,1.45,2.539.87,1.554,1.989,3.564,3.153,5.661,1.129,2.034,2.238,4.038,3.122,5.643.4.727.725,1.318.95,1.728.44.805.44.805.44,1.005a.764.764,0,0,1-.792.761c-.069,0-.164.009-.291.013-.231.007-.562.014-.985.019-.834.01-1.972.016-3.205.016H31.191v-8.88c0-2.222.011-4.267.03-5.757.01-.725.021-1.293.033-1.689.007-.208.013-.363.021-.475,0-.07.01-.123.016-.166A.76.76,0,0,1,32.045-483.673Zm7.7,16.138c-.734-1.337-2.124-3.855-3.835-6.94-1.276-2.3-2.395-4.306-3.2-5.741q-.022,1.938-.025,5.318v7.38h3.773C37.867-467.517,38.986-467.525,39.749-467.535Z"/></g></g></svg>