<svg xmlns="http://www.w3.org/2000/svg" xmlns:xlink="http://www.w3.org/1999/xlink" width="75" height="75" viewBox="0 0 75 75"><defs><style>.a{clip-path:url(#b);}.b{fill:#fff;}</style><clipPath id="b"><rect width="75" height="75"/></clipPath></defs><g id="a" class="a"><g transform="translate(-45 -1075)"><path class="b" d="M1.667-1H15a2.667,2.667,0,0,1,2.667,2.667v10A2.667,2.667,0,0,1,15,14.333H1.667A2.667,2.667,0,0,1-1,11.667v-10A2.667,2.667,0,0,1,1.667-1ZM15,12.333a.667.667,0,0,0,.667-.667v-10A.667.667,0,0,0,15,1H1.667A.667.667,0,0,0,1,1.667v10a.667.667,0,0,0,.667.667Z" transform="translate(75 1106.5)"/><path class="b" d="M8.333,6.731a4.349,4.349,0,0,1-2.707-.95l-6.251-5A1,1,0,0,1-.781-.625,1,1,0,0,1,.625-.781l6.251,5a2.333,2.333,0,0,0,2.916,0l6.251-5a1,1,0,0,1,1.406.156A1,1,0,0,1,17.291.781l-6.251,5A4.349,4.349,0,0,1,8.333,6.731Z" transform="translate(75 1109.833)"/></g></g></svg>