<svg xmlns="http://www.w3.org/2000/svg" xmlns:xlink="http://www.w3.org/1999/xlink" width="75" height="75" viewBox="0 0 75 75"><defs><style>.a{clip-path:url(#b);}.b{fill:#fff;}</style><clipPath id="b"><rect width="75" height="75"/></clipPath></defs><g id="a" class="a"><path class="b" d="M0,12.067A12.142,12.142,0,0,0,10,24V15.333H7V12h3V9.333a4.34,4.34,0,0,1,4.667-4.666,18.1,18.1,0,0,1,2.666.266V8H15.8C14.333,8,14,8.733,14,9.667V12h3.2l-.533,3.333H14V24A12.091,12.091,0,0,0,12,0,12.069,12.069,0,0,0,0,12.067Z" transform="translate(26 25.5)"/></g></svg>