<svg xmlns="http://www.w3.org/2000/svg" xmlns:xlink="http://www.w3.org/1999/xlink" width="75" height="75" viewBox="0 0 75 75"><defs><style>.a{clip-path:url(#b);}.b{fill:#fff;}</style><clipPath id="b"><rect width="75" height="75"/></clipPath></defs><g id="a" class="a"><path class="b" d="M7.429,6.969h3.714v1.85A4.261,4.261,0,0,1,15.111,6.8C19.062,6.8,20,8.917,20,12.8V20H16V13.688c0-2.213-.535-3.461-1.9-3.461-1.889,0-2.674,1.345-2.674,3.46V20h-4V6.969ZM.57,19.83h4V6.8h-4V19.83ZM5.143,2.55a2.53,2.53,0,0,1-.753,1.8,2.587,2.587,0,0,1-3.638,0,2.536,2.536,0,0,1,0-3.606,2.587,2.587,0,0,1,3.637,0A2.538,2.538,0,0,1,5.143,2.55Z" transform="translate(28 27.5)"/></g></svg>