<svg xmlns="http://www.w3.org/2000/svg" xmlns:xlink="http://www.w3.org/1999/xlink" width="75" height="75" viewBox="0 0 75 75"><defs><style>.a{clip-path:url(#b);}.b{fill:#fff;}</style><clipPath id="b"><rect width="75" height="75"/></clipPath></defs><g id="a" class="a"><path class="b" d="M3.683-1a1.825,1.825,0,0,1,1.382.625l2.8,3.229.022.025A1.907,1.907,0,0,1,7.753,5.46l-.8.8a11.147,11.147,0,0,0,3.441,3.446l.8-.8a1.966,1.966,0,0,1,1.38-.579,1.832,1.832,0,0,1,1.194.438l3.267,2.8a1.806,1.806,0,0,1,.631,1.317,1.958,1.958,0,0,1-.576,1.452L14.75,16.681a3.344,3.344,0,0,1-2.344.987,3.035,3.035,0,0,1-1.337-.3,25.278,25.278,0,0,1-6.877-4.9A25.28,25.28,0,0,1-.7,5.582,3.233,3.233,0,0,1-.015,1.9L2.3-.421A1.939,1.939,0,0,1,3.683-1ZM6.29,4.094,3.657,1.054,1.4,3.314a1.252,1.252,0,0,0-.3,1.4A23.435,23.435,0,0,0,11.941,15.563a1.052,1.052,0,0,0,.464.1,1.331,1.331,0,0,0,.929-.4l2.28-2.284-3.051-2.619-1.084,1.086a1.385,1.385,0,0,1-1.647.253l-.026-.014A13.145,13.145,0,0,1,4.97,6.848l-.014-.024a1.386,1.386,0,0,1,.252-1.647Z" transform="translate(30 29.5)"/></g></svg>