<svg xmlns="http://www.w3.org/2000/svg" xmlns:xlink="http://www.w3.org/1999/xlink" width="75" height="75" viewBox="0 0 75 75"><defs><style>.a{clip-path:url(#b);}.b{fill:#0455fe;}</style><clipPath id="b"><rect width="75" height="75"/></clipPath></defs><g id="a" class="a"><g transform="translate(-87.561 -158.649)"><g transform="translate(89.668 160.74)"><path class="b" d="M33.285-511.655c-.263.028-1.08.125-1.8.208A35.67,35.67,0,0,0,4.849-493.381,37.076,37.076,0,0,0,.737-480.727a52.6,52.6,0,0,0,0,8.86A35.56,35.56,0,0,0,16.6-446.587a35.508,35.508,0,0,0,36.2,1.44c1.731-.941,2.132-1.26,2.478-1.98a2.764,2.764,0,0,0-.941-3.489,1.968,1.968,0,0,0-1.44-.415,3.048,3.048,0,0,0-1.274.222,40.309,40.309,0,0,1-4.569,2.243,29.631,29.631,0,0,1-14,2.021,29.912,29.912,0,0,1-25.515-20.42,29.1,29.1,0,0,1,0-18.662,29.739,29.739,0,0,1,19.077-19.05,29.065,29.065,0,0,1,18.62.014A29.874,29.874,0,0,1,61.458-491.8,30.64,30.64,0,0,1,65.68-479.08a30.1,30.1,0,0,1-4.513,18.7c-.775,1.246-.817,1.357-.817,2.215a2.489,2.489,0,0,0,1.218,2.326,2.977,2.977,0,0,0,2.907.042c.831-.512,2.52-3.253,3.821-6.216a35.34,35.34,0,0,0-10.162-41.879,35.112,35.112,0,0,0-17.236-7.5A60.168,60.168,0,0,0,33.285-511.655Z" transform="translate(-0.55 511.696)"/></g><path d="M38.31,7.5a3.046,3.046,0,0,0-4.236,0L17.151,24.371l-7.4-7.354A3,3,0,0,0,5.513,21.23l7.854,7.688a5.379,5.379,0,0,0,3.784,1.547h0a5.379,5.379,0,0,0,3.784-1.547L38.31,11.567a3.023,3.023,0,0,0,.857-2.118A2.975,2.975,0,0,0,38.31,7.5Z" transform="translate(103.067 176.94)"/></g></g></svg>