<svg xmlns="http://www.w3.org/2000/svg" xmlns:xlink="http://www.w3.org/1999/xlink" width="75" height="75" viewBox="0 0 75 75"><defs><style>.a{clip-path:url(#b);}.b{fill:#9f9fb7;}</style><clipPath id="b"><rect width="75" height="75"/></clipPath></defs><g id="a" class="a"><g transform="translate(16.746 529.301)"><path class="b" d="M271-502.645v9.664h19.319l-.048-1.505a16.664,16.664,0,0,0-.584-4.243A18.233,18.233,0,0,0,276.8-511.667a17.941,17.941,0,0,0-4.259-.584L271-512.3Z" transform="translate(-249.067)"/><path class="b" d="M103.863-450.944a18.114,18.114,0,0,0-8.31,2.85l-.753.48,5.837,5.837c3.2,3.2,5.837,5.828,5.845,5.828s.024-3.387.024-7.526V-451l-1.137.016C104.736-450.976,104.063-450.96,103.863-450.944Z" transform="translate(-86.975 -56.392)"/><path class="b" d="M5.272-388.4a17.631,17.631,0,0,0-2.01,22.161,10.737,10.737,0,0,0,1.5,1.938c.048.016,3-2.89,6.565-6.461l6.485-6.485-5.933-5.933L5.952-389.1Z" transform="translate(0 -113.336)"/><path class="b" d="M86.7-233.642c-4.411,4.411-7.334,7.39-7.3,7.446a14.144,14.144,0,0,0,1.986,1.513,17.618,17.618,0,0,0,14.283,2.378,18.071,18.071,0,0,0,11.609-9.527,17.384,17.384,0,0,0,1.849-7.63l.048-1.537H94.056Z" transform="translate(-72.805 -249.579)"/></g></g></svg>