<svg xmlns="http://www.w3.org/2000/svg" xmlns:xlink="http://www.w3.org/1999/xlink" width="75" height="75" viewBox="0 0 75 75"><defs><style>.a{clip-path:url(#b);}.b{fill:#9f9fb7;}</style><clipPath id="b"><rect width="75" height="75"/></clipPath></defs><g id="a" class="a"><g transform="translate(-34.773 485.085)"><path class="b" d="M86.234-465.653c-1.874.776-15.491,6.887-15.436,6.933.037.046,1.44.683,3.111,1.431,2.788,1.237,3.065,1.339,3.314,1.246.951-.351,16.008-7.081,15.953-7.127-.037-.028-1.311-.609-2.834-1.283-2.382-1.062-2.843-1.237-3.324-1.265A2.906,2.906,0,0,0,86.234-465.653Z" transform="translate(-16.028 0)"/><path class="b" d="M173.084-422.221c-4.21,1.874-7.847,3.5-8.069,3.6l-.415.2,3.73,1.653,3.72,1.653,8.041-3.564c4.422-1.957,8.069-3.591,8.106-3.628.065-.055-6.979-3.231-7.312-3.3C180.811-425.61,177.3-424.1,173.084-422.221Z" transform="translate(-101.17 -36.415)"/><path class="b" d="M53.146-363.1l.028,9.906.2.388a2.429,2.429,0,0,0,.508.619c.24.175,15.833,7.164,16,7.164.028,0,.046-4.635.046-10.294v-10.285l-.249-.138C69.108-366.03,53.321-373,53.229-373,53.155-373,53.127-370.323,53.146-363.1Z" transform="translate(0 -84.159)"/><path class="b" d="M264.244-369.226,256-365.57l.009,6.185c.009,3.914.046,5.982.092,5.632a10.66,10.66,0,0,1,3.305-6.352,10.733,10.733,0,0,1,10.257-2.6,12.362,12.362,0,0,1,1.966.766l1.08.545v-5.761c0-4.542-.028-5.752-.111-5.742C272.535-372.891,268.768-371.239,264.244-369.226Z" transform="translate(-184.132 -84.25)"/><path class="b" d="M284.555-244.556a8.856,8.856,0,0,0-5.678,13.58,8.861,8.861,0,0,0,10.681,3.333,8.985,8.985,0,0,0,4.791-4.671,7.037,7.037,0,0,0,.674-3.6,6.082,6.082,0,0,0-.259-2.354,8.922,8.922,0,0,0-6.333-6.185A13.3,13.3,0,0,0,284.555-244.556Zm6.259,6.01a.856.856,0,0,1,.268,1.071,35.379,35.379,0,0,1-2.76,2.917c-2.5,2.493-2.64,2.613-2.963,2.613a1.51,1.51,0,0,1-.6-.129,18.7,18.7,0,0,1-2.9-3.019c-.055-.849.36-1.265,1.2-1.209a4.667,4.667,0,0,1,1.228,1.006l1.016.988,2.234-2.234c2.206-2.2,2.253-2.234,2.622-2.234A.907.907,0,0,1,290.815-238.546Z" transform="translate(-203.547 -200.657)"/><path class="b" d="M256.083-132.274c-.009,2.539.018,3.2.111,3.167a11.594,11.594,0,0,0,1.911-.914,1.931,1.931,0,0,0-.268-.471,11.682,11.682,0,0,1-1.616-4.2C256.1-135.459,256.093-135.339,256.083-132.274Z" transform="translate(-184.206 -300.106)"/></g></g></svg>