<svg xmlns="http://www.w3.org/2000/svg" xmlns:xlink="http://www.w3.org/1999/xlink" width="75" height="75" viewBox="0 0 75 75"><defs><style>.a{clip-path:url(#b);}.b{fill:#9f9fb7;}</style><clipPath id="b"><rect width="75" height="75"/></clipPath></defs><g id="a" class="a"><g transform="translate(-379.014 -678)"><path class="b" d="M2.326-511.631a3.13,3.13,0,0,0-1.964,1.693l-.255.534-.025,4.931c-.025,4.734-.016,4.947.14,5.465a3.171,3.171,0,0,0,1.183,1.619c.74.5.879.518,4.553.518H9.27v1.808H8.621c-.781,0-1.1.173-1.389.756a1.023,1.023,0,0,0-.14.731,1.53,1.53,0,0,0,.929,1.06,40.679,40.679,0,0,0,5.1,0,1.326,1.326,0,0,0,.912-1.553c-.189-.715-.616-.994-1.52-.994H11.9v-1.808h3.312c3.657,0,3.8-.016,4.545-.518a3.151,3.151,0,0,0,1.192-1.627c.156-.518.164-.715.14-5.465l-.025-4.923-.255-.534a3.061,3.061,0,0,0-1.5-1.5l-.551-.263-8.054-.016C4.364-511.729,2.589-511.713,2.326-511.631Zm16,2.654c.14.123.148.378.148,4.676,0,4.019-.016,4.553-.131,4.668s-.929.131-7.758.131-7.643-.016-7.758-.131-.131-.649-.131-4.651c0-4.1.016-4.545.14-4.684s.477-.148,7.733-.148C17.529-509.116,18.186-509.108,18.326-508.976Z" transform="translate(395.928 1207.091)"/><path class="b" d="M300.315-426.629A1.7,1.7,0,0,0,299-424.9a1.749,1.749,0,0,0,1.085,1.594,4.856,4.856,0,0,0,2.071.033,1.87,1.87,0,0,0,1.109-1.159,1.759,1.759,0,0,0-.781-2,1.947,1.947,0,0,0-1.175-.247A4.416,4.416,0,0,0,300.315-426.629Z" transform="translate(121.565 1129.034)"/><path class="b" d="M374.3-412.463a1.583,1.583,0,0,0-1.06.92,1.646,1.646,0,0,0,.189,1.824,9.281,9.281,0,0,1,.518.871,1.578,1.578,0,0,0,1.463.937,1.619,1.619,0,0,0,1.537-.715,1.219,1.219,0,0,0,.247-.945,2.106,2.106,0,0,0-.312-1.216C376.21-412.168,375.274-412.767,374.3-412.463Z" transform="translate(53.601 1116.059)"/><path class="b" d="M385.331-330.745a1.713,1.713,0,0,0-1.118.912,2.135,2.135,0,0,0-.214,1.225,2.135,2.135,0,0,0,.214,1.224,1.7,1.7,0,0,0,2.811.378,2.167,2.167,0,0,0,.509-1.6,2.167,2.167,0,0,0-.509-1.6,1.43,1.43,0,0,0-.748-.493A1.35,1.35,0,0,0,385.331-330.745Z" transform="translate(43.551 1041.047)"/><path class="b" d="M86.363-234.515a1.89,1.89,0,0,0-1.175,1.159,4.126,4.126,0,0,0-.025,1.849,1.9,1.9,0,0,0,1.266,1.241,1.692,1.692,0,0,0,1.956-.9A2.15,2.15,0,0,0,88.6-232.4a2.02,2.02,0,0,0-.23-1.233A1.738,1.738,0,0,0,86.363-234.515Z" transform="translate(317.914 952.723)"/><path class="b" d="M258.924-234.634a3.214,3.214,0,0,0-2.2,1.783l-.222.468v10.272l.271.551A3.367,3.367,0,0,0,258.415-220c.46.181.542.189,3.862.214l3.386.025v1.718h-.592a1.555,1.555,0,0,0-.92.189,1.3,1.3,0,0,0,.041,2.276c.288.156.493.164,2.786.164s2.5-.008,2.786-.164a1.288,1.288,0,0,0,.7-1.151c0-.83-.592-1.315-1.594-1.315h-.575v-1.718l3.394-.025c3.312-.025,3.394-.033,3.854-.214a3.367,3.367,0,0,0,1.644-1.561l.271-.551v-10.272l-.271-.551a3.367,3.367,0,0,0-1.644-1.561l-.468-.189-7.889-.016C262.844-234.7,259.13-234.675,258.924-234.634Zm15.762,2.671.181.123v9.188l-.181.123c-.164.115-1.035.131-7.708.131s-7.544-.016-7.708-.131l-.181-.123v-9.188l.181-.123c.164-.115,1.035-.131,7.708-.131S274.522-232.078,274.686-231.963Z" transform="translate(160.573 952.834)"/><path class="b" d="M89.363-155.727a2.319,2.319,0,0,0-.616.551,1.22,1.22,0,0,0-.247.945,2.2,2.2,0,0,0,.321,1.249,2.988,2.988,0,0,0,1.66,1.66,1.719,1.719,0,0,0,1.972-.945,1.649,1.649,0,0,0-.189-1.816,9.281,9.281,0,0,1-.518-.871,1.578,1.578,0,0,0-1.463-.937A1.4,1.4,0,0,0,89.363-155.727Z" transform="translate(314.767 880.509)"/><path class="b" d="M161.363-127.822a2.037,2.037,0,0,0-1.085,1.159,1.784,1.784,0,0,0,.805,2.013c.362.214.452.23,1.29.23.814,0,.945-.025,1.274-.205a1.751,1.751,0,0,0,.468-2.687,1.847,1.847,0,0,0-1.7-.592A5.7,5.7,0,0,0,161.363-127.822Z" transform="translate(248.946 854.814)"/></g></g></svg>