<svg xmlns="http://www.w3.org/2000/svg" xmlns:xlink="http://www.w3.org/1999/xlink" width="75" height="75" viewBox="0 0 75 75"><defs><style>.a{clip-path:url(#b);}.b{fill:#9f9fb7;}</style><clipPath id="b"><rect width="75" height="75"/></clipPath></defs><g id="a" class="a"><g transform="translate(17.45 529.696)"><path class="b" d="M19.107-511.673c-.149.016-.612.071-1.02.118a20.221,20.221,0,0,0-15.1,10.242A21.019,21.019,0,0,0,.656-494.14a29.818,29.818,0,0,0,0,5.023A20.159,20.159,0,0,0,9.65-474.786a20.13,20.13,0,0,0,20.523.816c.981-.534,1.209-.714,1.4-1.122a1.567,1.567,0,0,0-.534-1.978,1.116,1.116,0,0,0-.816-.235,1.728,1.728,0,0,0-.722.126,22.849,22.849,0,0,1-2.59,1.271,16.8,16.8,0,0,1-7.935,1.146A16.957,16.957,0,0,1,4.517-486.339a16.5,16.5,0,0,1,0-10.579,16.859,16.859,0,0,1,10.815-10.8,16.477,16.477,0,0,1,10.556.008,16.936,16.936,0,0,1,9.19,7.291,17.37,17.37,0,0,1,2.394,7.213,17.061,17.061,0,0,1-2.559,10.6c-.44.706-.463.769-.463,1.256a1.411,1.411,0,0,0,.691,1.319,1.688,1.688,0,0,0,1.648.024,10.853,10.853,0,0,0,2.166-3.524A20.035,20.035,0,0,0,33.2-507.27a19.9,19.9,0,0,0-9.771-4.254A34.115,34.115,0,0,0,19.107-511.673Z"/><path class="b" d="M154.56-365.71a1.805,1.805,0,0,0-.95.989,28.741,28.741,0,0,0-.086,3.139v2.841l-3.006.024-3.006.024-.322.212a1.4,1.4,0,0,0-.691,1.326,1.22,1.22,0,0,0,.212.832,2.065,2.065,0,0,0,.51.5l.3.188,3,.024,3,.024.024,3,.024,3,.188.3a2.065,2.065,0,0,0,.5.51,1.19,1.19,0,0,0,.84.212,1.19,1.19,0,0,0,.84-.212,2.065,2.065,0,0,0,.5-.51l.188-.3.024-3,.024-3,3.006-.024,3-.024.322-.212a1.4,1.4,0,0,0,.691-1.326,1.221,1.221,0,0,0-.212-.832,2.065,2.065,0,0,0-.51-.5l-.3-.188-3-.024-3-.024-.024-3-.024-3-.188-.3A1.686,1.686,0,0,0,154.56-365.71Z" transform="translate(-134.495 -134.465)"/></g></g></svg>