<svg xmlns="http://www.w3.org/2000/svg" xmlns:xlink="http://www.w3.org/1999/xlink" width="75" height="75" viewBox="0 0 75 75"><defs><style>.a{clip-path:url(#b);}.b{fill:#9f9fb7;}</style><clipPath id="b"><rect width="75" height="75"/></clipPath></defs><g id="a" class="a"><g transform="translate(-12.759 499.134)"><path class="b" d="M32.956-479.669a1.471,1.471,0,0,0-.765.927c-.026.153-.034,5.288-.026,11.427.026,11.112.026,11.154.2,11.384a2.318,2.318,0,0,0,.408.408c.23.179.332.179,5.756.2l5.518.017-3.12-4.353c-1.709-2.4-3.2-4.557-3.307-4.787a4.1,4.1,0,0,1,2.729-5.611,4.15,4.15,0,0,1,3.766.986c.2.179,1.2,1.513,2.236,2.967l1.879,2.636h6.257L54.3-464a8.023,8.023,0,0,1-.357-3.256,6.533,6.533,0,0,1,1.08-3.979,6.791,6.791,0,0,1,9.378-2.006,6.868,6.868,0,0,1,2.933,4.123,8.722,8.722,0,0,1,.145,2.3,6.5,6.5,0,0,1-.221,2.466c-.128.374-.247.74-.281.808-.043.1.094.162.689.306a8.075,8.075,0,0,1,2.219.927l.357.221-.017-8.417c-.026-8.349-.026-8.417-.2-8.646a2.32,2.32,0,0,0-.408-.408l-.23-.179-18.083-.017C36.391-479.78,33.169-479.763,32.956-479.669Z" transform="translate(-0.033 0)"/><path class="b" d="M323.069-383.834a4.176,4.176,0,0,0-2.942,2.984,10.727,10.727,0,0,0,0,3.3,4.105,4.105,0,0,0,4.931,2.976,4.194,4.194,0,0,0,3.018-3.18,11.353,11.353,0,0,0-.043-3.095A4.105,4.105,0,0,0,323.069-383.834Z" transform="translate(-263.399 -87.657)"/><path class="b" d="M40.736-334.592a1.4,1.4,0,0,0-.731,1.564c.119.4,5.994,8.638,6.334,8.893.238.17.357.179,4.14.221,3.766.043,3.9.051,4.132.221a2.318,2.318,0,0,1,.408.408c.17.221.179.366.2,2.585l.026,2.355.757.247a6.81,6.81,0,0,1,4.557,5.22,6.286,6.286,0,0,1,.119.918v.289H58l-.085-.587a4.107,4.107,0,0,0-4.991-3.367,4.074,4.074,0,0,0-1.862,1.046,4.153,4.153,0,0,0-1.139,1.989c-.068.417-.17.417-.238,0a4.153,4.153,0,0,0-1.139-1.989,4,4,0,0,0-5.645,0,4.153,4.153,0,0,0-1.139,1.989c-.068.417-.17.417-.238,0a4.153,4.153,0,0,0-1.139-1.989,4.074,4.074,0,0,0-1.862-1.046,4.1,4.1,0,0,0-4.982,3.35l-.094.578-.357.094a1.376,1.376,0,0,0-.935,1.59,1.455,1.455,0,0,0,.884.978c.221.068,5.747.085,17.845.068l17.531-.026-.442-.646a13.322,13.322,0,0,1-.782-1.335l-.332-.7h-.731v-5.824c0-4.957.017-5.866.128-6.07a.608.608,0,0,1,1.02-.136l.213.2v10.483l.408-.06a3.284,3.284,0,0,0,1.6-.833,4.63,4.63,0,0,0,.442-.689l.23-.434.026-4.625c.017-3.061-.009-4.77-.068-5.067a4.209,4.209,0,0,0-3.273-3.188c-.366-.068-3.205-.085-10.075-.068-5.263.017-9.633.051-9.718.068-.119.034-.655-.663-2.466-3.18-1.275-1.777-2.415-3.307-2.542-3.392A1.594,1.594,0,0,0,40.736-334.592Z" transform="translate(0 -132.75)"/></g></g></svg>