<?xml version="1.0" standalone="no"?>
<!DOCTYPE svg PUBLIC "-//W3C//DTD SVG 20010904//EN"
 "http://www.w3.org/TR/2001/REC-SVG-20010904/DTD/svg10.dtd">
<svg version="1.0" xmlns="http://www.w3.org/2000/svg"
 width="512.000000pt" height="512.000000pt" viewBox="0 0 512.000000 512.000000"
 preserveAspectRatio="xMidYMid meet">

<g transform="translate(0.000000,512.000000) scale(0.100000,-0.100000)"
fill="#ffffff" stroke="none">
<path d="M125 5095 l-25 -24 0 -881 0 -880 -29 0 c-20 0 -36 -9 -50 -26 -19
-25 -21 -40 -21 -201 0 -171 0 -174 25 -198 13 -14 36 -25 50 -25 l25 0 0
-890 0 -890 -25 0 c-14 0 -37 -11 -50 -25 -25 -24 -25 -27 -25 -198 0 -161 2
-176 21 -201 14 -17 30 -26 50 -26 l29 0 0 -290 0 -291 25 -24 c24 -25 26 -25
203 -25 173 0 179 1 200 23 21 22 22 31 24 312 l3 290 2005 0 2005 0 3 -290
c2 -281 3 -290 24 -312 21 -22 27 -23 200 -23 177 0 179 0 203 25 l25 24 0
291 0 290 29 0 c20 0 36 9 50 26 19 25 21 40 21 201 0 171 0 174 -25 198 -13
14 -36 25 -50 25 l-25 0 0 530 c0 372 -3 536 -11 554 -23 51 -103 55 -128 7
-7 -13 -11 -197 -11 -555 l0 -536 -75 0 -75 0 0 890 0 890 75 0 75 0 0 -203
c0 -200 0 -204 23 -225 33 -31 80 -29 106 4 20 25 21 40 21 225 l0 199 25 0
c14 0 37 11 50 25 25 24 25 27 25 198 0 161 -2 176 -21 201 -14 17 -30 26 -50
26 l-29 0 0 880 0 881 -25 24 c-24 25 -26 25 -203 25 -174 0 -179 -1 -200 -23
l-22 -23 -2 -880 -3 -879 -57 -3 -58 -3 0 571 c0 557 0 570 -20 590 -20 20
-33 20 -1870 20 -1837 0 -1850 0 -1870 -20 -20 -20 -20 -33 -20 -590 l0 -571
-57 3 -58 3 -3 407 -2 407 -26 20 c-35 27 -57 26 -91 -3 l-28 -24 -3 -406 -3
-406 -74 0 -75 0 0 830 0 830 75 0 74 0 3 -281 3 -281 24 -19 c30 -25 76 -24
101 1 19 19 20 33 20 353 l0 334 -23 21 c-22 21 -32 22 -201 22 -175 0 -177 0
-201 -25z m4745 -955 l0 -830 -75 0 -75 0 0 830 0 830 75 0 75 0 0 -830z
m-3750 40 c0 -157 1 -161 25 -185 32 -33 54 -31 136 6 l68 31 67 -31 c79 -37
100 -38 131 -9 22 21 23 27 23 185 l0 163 155 0 155 0 0 -515 0 -515 -530 0
-530 0 0 515 0 515 150 0 150 0 0 -160z m300 74 c0 -78 -2 -85 -17 -78 -22 10
-80 10 -110 -1 -23 -7 -23 -6 -23 79 l0 86 75 0 75 0 0 -86z m910 -64 c0 -113
4 -158 15 -179 26 -51 53 -53 147 -10 l68 32 68 -32 c94 -43 121 -41 147 10
11 21 15 66 15 179 l0 150 150 0 150 0 0 -515 0 -515 -530 0 -530 0 0 515 0
515 150 0 150 0 0 -150z m310 64 c0 -85 0 -86 -22 -79 -29 10 -87 10 -115 0
-23 -7 -23 -6 -23 79 l0 86 80 0 80 0 0 -86z m910 -76 c0 -152 1 -163 22 -185
28 -30 52 -29 133 8 l68 31 67 -31 c81 -37 103 -38 135 -6 24 24 25 28 25 185
l0 160 150 0 150 0 0 -515 0 -515 -530 0 -530 0 0 515 0 515 155 0 155 0 0
-162z m300 76 c0 -85 0 -86 -22 -79 -31 11 -89 11 -110 1 -16 -7 -18 0 -18 78
l0 86 75 0 75 0 0 -86z m1120 -1169 l0 -75 -1764 0 -1763 0 -27 -21 c-33 -26
-36 -79 -6 -109 20 -20 33 -20 1590 -20 l1570 0 0 -890 0 -890 -60 0 -60 0 0
567 0 567 -22 23 -21 23 -1846 0 -1845 0 -23 -22 -23 -21 0 -569 0 -568 -60 0
-60 0 0 890 0 890 295 0 c282 0 296 1 315 20 30 30 27 83 -6 109 -26 21 -36
21 -515 21 l-489 0 0 75 0 75 2410 0 2410 0 0 -75z m-4570 -1115 l0 -890 -75
0 -75 0 0 890 0 890 75 0 75 0 0 -890z m720 -19 c0 -145 2 -161 21 -185 27
-34 60 -34 142 4 l65 29 66 -29 c77 -35 109 -37 136 -10 18 18 20 33 20 185
l0 165 155 0 155 0 0 -515 0 -515 -530 0 -530 0 0 515 0 515 150 0 150 0 0
-159z m300 69 l0 -90 -35 17 c-31 15 -38 15 -75 0 l-40 -15 0 89 0 89 75 0 75
0 0 -90z m912 -76 c3 -160 4 -166 27 -185 32 -26 58 -24 135 11 l66 29 66 -29
c77 -35 103 -37 135 -11 23 19 24 25 27 185 l3 166 150 0 149 0 0 -515 0 -515
-530 0 -530 0 0 515 0 515 149 0 150 0 3 -166z m308 77 l0 -89 -39 15 c-36 14
-44 14 -80 -1 l-41 -16 0 90 0 90 80 0 80 0 0 -89z m910 -76 c0 -152 2 -167
20 -185 28 -28 64 -25 139 10 l64 31 65 -31 c80 -38 114 -39 141 -4 19 24 21
40 21 185 l0 159 150 0 150 0 0 -515 0 -515 -530 0 -530 0 0 515 0 515 155 0
155 0 0 -165z m300 76 l0 -89 -40 15 c-37 15 -44 15 -75 0 l-35 -17 0 90 0 90
75 0 75 0 0 -89z m1120 -1166 l0 -75 -2410 0 -2410 0 0 75 0 75 2410 0 2410 0
0 -75z m-4570 -465 l0 -240 -75 0 -75 0 0 240 0 240 75 0 75 0 0 -240z m4470
0 l0 -240 -75 0 -75 0 0 240 0 240 75 0 75 0 0 -240z"/>
<path d="M1398 3666 c-36 -18 -49 -54 -46 -129 3 -53 8 -72 25 -89 29 -28 82
-27 105 3 23 28 25 164 3 196 -18 25 -57 34 -87 19z"/>
<path d="M1675 3672 c-46 -9 -55 -30 -55 -122 0 -73 3 -90 19 -104 27 -25 78
-24 104 3 19 18 22 33 22 100 0 62 -4 83 -18 99 -21 23 -43 30 -72 24z"/>
<path d="M2625 3672 c-46 -9 -55 -30 -55 -122 0 -73 3 -90 19 -104 27 -25 78
-24 104 3 19 18 22 33 22 100 0 62 -4 83 -18 99 -21 23 -43 30 -72 24z"/>
<path d="M2873 3665 c-38 -16 -43 -30 -43 -121 0 -61 4 -78 20 -94 33 -33 75
-30 108 6 18 21 22 37 22 93 0 101 -40 144 -107 116z"/>
<path d="M3823 3665 c-38 -16 -43 -30 -43 -121 0 -61 4 -78 20 -94 33 -33 75
-30 108 6 18 21 22 37 22 93 0 101 -40 144 -107 116z"/>
<path d="M4089 3668 c-35 -12 -49 -46 -49 -118 0 -72 14 -106 50 -118 32 -11
84 7 94 33 10 26 7 154 -4 175 -13 25 -59 39 -91 28z"/>
<path d="M1379 1421 c-20 -16 -24 -30 -27 -95 -4 -73 -3 -76 26 -106 36 -35
60 -38 96 -9 24 19 26 26 26 105 0 71 -3 87 -20 104 -25 25 -71 26 -101 1z"/>
<path d="M1640 1420 c-17 -17 -20 -33 -20 -104 0 -79 2 -86 26 -105 35 -27 57
-26 91 3 26 23 28 29 28 106 0 74 -2 84 -24 101 -30 25 -76 24 -101 -1z"/>
<path d="M2590 1420 c-17 -17 -20 -33 -20 -104 0 -79 2 -86 26 -105 35 -27 57
-26 91 3 26 23 28 29 28 106 0 74 -2 84 -24 101 -30 25 -76 24 -101 -1z"/>
<path d="M2852 1417 c-19 -20 -22 -35 -22 -101 0 -69 3 -79 26 -103 20 -20 31
-24 57 -19 51 10 62 28 65 114 3 67 1 81 -18 105 -28 35 -77 37 -108 4z"/>
<path d="M3800 1420 c-17 -17 -20 -33 -20 -100 0 -73 3 -83 25 -105 27 -28 42
-30 78 -14 34 15 47 49 47 123 0 49 -5 69 -21 90 -26 33 -79 36 -109 6z"/>
<path d="M4061 1414 c-17 -22 -21 -41 -21 -99 0 -84 15 -111 67 -121 26 -5 37
-1 57 19 24 24 26 34 26 105 0 69 -3 81 -23 100 -33 31 -80 29 -106 -4z"/>
</g>
</svg>
