<?xml version="1.0" standalone="no"?>
<!DOCTYPE svg PUBLIC "-//W3C//DTD SVG 20010904//EN"
 "http://www.w3.org/TR/2001/REC-SVG-20010904/DTD/svg10.dtd">
<svg version="1.0" xmlns="http://www.w3.org/2000/svg"
 width="512.000000pt" height="512.000000pt" viewBox="0 0 512.000000 512.000000"
 preserveAspectRatio="xMidYMid meet">

<g transform="translate(0.000000,512.000000) scale(0.100000,-0.100000)"
fill="#ffffff" stroke="none">
<path d="M575 5106 c-41 -18 -83 -69 -90 -109 -3 -18 -4 -1126 -3 -2464 l3
-2432 21 -27 c11 -15 33 -37 48 -48 l27 -21 1965 -3 c2171 -2 2006 -7 2060 64
l29 37 0 2056 0 2056 -32 65 c-28 57 -77 110 -395 426 -276 274 -375 367 -413
385 l-50 24 -1570 2 c-1291 2 -1575 0 -1600 -11z m3035 -525 c0 -538 -47 -491
497 -491 l383 0 0 -1970 0 -1970 -1930 0 -1930 0 0 2410 0 2410 1490 0 1490 0
0 -389z m493 22 c181 -181 333 -336 338 -345 9 -17 -10 -18 -336 -18 l-345 0
0 345 c0 190 3 345 7 345 4 0 155 -147 336 -327z"/>
<path d="M986 4537 c-33 -33 -33 -71 -1 -102 19 -20 34 -25 74 -25 80 0 89
-13 171 -265 40 -121 81 -236 90 -255 44 -86 151 -157 252 -166 69 -7 695 107
742 134 17 10 41 34 54 52 22 34 23 41 20 215 -3 204 -8 217 -84 255 -40 20
-56 21 -393 18 -385 -3 -374 -2 -387 -65 -5 -26 -1 -37 19 -57 l26 -26 336 0
335 0 0 -133 0 -133 -321 -58 c-211 -38 -332 -56 -354 -52 -43 8 -90 48 -114
95 -10 20 -51 134 -91 254 -78 237 -97 270 -174 309 -24 12 -68 23 -108 26
-61 4 -68 3 -92 -21z"/>
<path d="M2676 4218 c-36 -33 -39 -75 -6 -108 19 -19 33 -20 330 -20 297 0
311 1 330 20 33 33 30 75 -6 108 -25 22 -28 22 -324 22 -296 0 -299 0 -324
-22z"/>
<path d="M2674 3897 c-34 -30 -36 -83 -3 -109 19 -16 50 -18 330 -18 296 0
310 1 329 20 33 33 30 75 -6 108 -25 22 -28 22 -324 22 -299 0 -299 0 -326
-23z"/>
<path d="M1428 3670 c-92 -28 -156 -120 -144 -207 8 -58 30 -97 79 -137 35
-28 45 -31 111 -31 60 0 78 4 108 24 52 36 81 84 86 145 8 98 -49 179 -143
205 -46 12 -59 13 -97 1z m73 -150 c21 -12 25 -50 7 -68 -39 -39 -100 17 -63
58 21 23 29 24 56 10z"/>
<path d="M2135 3665 c-52 -19 -111 -82 -125 -135 -14 -53 0 -120 36 -168 83
-108 264 -91 323 30 54 111 -3 246 -117 278 -48 13 -68 12 -117 -5z m86 -145
c38 -21 18 -80 -28 -80 -53 0 -49 76 5 89 2 1 12 -4 23 -9z"/>
<path d="M2674 3577 c-34 -30 -36 -83 -3 -109 20 -17 61 -18 569 -18 507 0
549 1 568 18 12 9 24 29 28 44 5 22 0 33 -24 58 l-30 30 -541 0 -540 0 -27
-23z"/>
<path d="M1009 3029 c-14 -5 -31 -21 -38 -35 -8 -18 -11 -270 -11 -923 0 -863
1 -900 19 -922 26 -32 86 -32 112 0 18 22 19 51 19 597 l0 574 245 0 245 0 0
-765 0 -765 -245 0 -245 0 0 58 c0 48 -4 62 -23 80 -31 29 -72 28 -102 -3 -23
-23 -25 -31 -25 -130 0 -99 2 -107 25 -130 l24 -25 1540 0 c1107 0 1547 3
1564 11 14 6 30 22 36 36 8 17 11 348 11 1158 l0 1134 -24 28 c-24 28 -26 28
-136 28 -105 0 -113 -1 -131 -24 -22 -28 -25 -69 -5 -97 11 -14 30 -20 78 -24
l63 -5 0 -205 0 -205 -485 0 -485 0 0 205 0 205 301 3 c287 2 302 3 319 22 25
28 23 76 -4 103 l-22 22 -1297 2 c-810 1 -1307 -2 -1323 -8z m591 -349 l0
-210 -242 2 -243 3 -3 208 -2 207 245 0 245 0 0 -210z m640 0 l0 -210 -242 2
-243 3 -3 195 c-1 107 0 200 2 207 4 10 60 13 246 13 l240 0 0 -210z m640 0
l0 -210 -242 2 -243 3 -3 195 c-1 107 0 200 2 207 4 10 60 13 246 13 l240 0 0
-210z m-640 -565 l0 -205 -245 0 -245 0 0 205 0 205 245 0 245 0 0 -205z m640
0 l0 -205 -242 2 -243 3 -3 203 -2 202 245 0 245 0 0 -205z m1128 3 l-3 -203
-485 0 -485 0 -3 203 -2 202 490 0 490 0 -2 -202z m-1768 -563 l0 -205 -245 0
-245 0 0 205 0 205 245 0 245 0 0 -205z m640 0 l0 -205 -242 2 -243 3 -3 203
-2 202 245 0 245 0 0 -205z m1130 0 l0 -205 -487 2 -488 3 -3 203 -2 202 490
0 490 0 0 -205z m-1770 -560 l0 -205 -245 0 -245 0 0 205 0 205 245 0 245 0 0
-205z m640 0 l0 -205 -245 0 -245 0 0 205 0 205 245 0 245 0 0 -205z m1130 0
l0 -205 -487 2 -488 3 -3 203 -2 202 490 0 490 0 0 -205z"/>
</g>
</svg>
