<svg xmlns="http://www.w3.org/2000/svg" xmlns:xlink="http://www.w3.org/1999/xlink" width="75" height="75" viewBox="0 0 75 75"><defs><style>.a{clip-path:url(#b);}.b{fill:#fff;}</style><clipPath id="b"><rect width="75" height="75"/></clipPath></defs><g id="a" class="a"><g transform="translate(-170 -7284)"><path class="b" d="M177.093-487.687a8.479,8.479,0,0,0-6.833,9.284,8.476,8.476,0,0,0,7.351,7.372,8.46,8.46,0,0,0,9.379-7.372A8.463,8.463,0,0,0,177.093-487.687ZM180.05-486a6.885,6.885,0,0,1,5.175,5.175A6.776,6.776,0,0,1,177.2-472.8a6.867,6.867,0,0,1-4.584-3.538,6.672,6.672,0,0,1,0-6.126A6.765,6.765,0,0,1,180.05-486Z" transform="translate(28.732 7785.815)"/><path class="b" d="M53.981-311.751a9.639,9.639,0,0,0-5.809,3.38,13.207,13.207,0,0,0-2.112,4.626c-.57,1.869-.655,2.07-.94,2.218a3.151,3.151,0,0,0-1.215,1.162,3.242,3.242,0,0,0-.137,2.324l.2,1.1-.929,3c-.507,1.658-.951,3.242-.993,3.517a4.067,4.067,0,0,0,.042,1.12c.222,1.162.549,1.648,2.45,3.58,1.341,1.362,1.785,1.891,1.869,2.186l.106.391-2.788.032c-2.493.032-2.8.053-2.968.222a1.086,1.086,0,0,0,0,1.2c.18.18,1.341.19,22.391.222,15.938.011,22.285-.011,22.486-.1A.818.818,0,0,0,85.708-283a18.149,18.149,0,0,0-3.549-.137H78.875l.106-.391c.084-.306.518-.824,1.869-2.2,1.9-1.933,2.229-2.419,2.45-3.58a4.067,4.067,0,0,0,.042-1.12c-.042-.275-.486-1.859-.993-3.517l-.929-3,.2-1.1a3.242,3.242,0,0,0-.137-2.324,3.151,3.151,0,0,0-1.215-1.162c-.285-.148-.37-.349-.94-2.218a27.5,27.5,0,0,0-1.067-2.947,9.317,9.317,0,0,0-6.96-5.07C70.383-311.888,54.878-311.878,53.981-311.751Zm18.166,1.88a7.057,7.057,0,0,1,3.169,1.965c1.183,1.172,1.616,1.986,2.366,4.457l.518,1.722H47.189l.518-1.722c.75-2.471,1.183-3.285,2.366-4.457a7.088,7.088,0,0,1,3.971-2.155c.253-.053,4.267-.085,8.914-.085l8.449.021ZM79.8-299.827a1.151,1.151,0,0,1,.264.444c.032.137-.581,3.728-1.362,7.985-1.246,6.844-1.436,7.773-1.648,8.006l-.243.253H48.573l-.243-.253c-.211-.232-.4-1.162-1.648-8.006-.782-4.256-1.394-7.847-1.362-7.985a1.151,1.151,0,0,1,.264-.444c.211-.211.422-.211,17.11-.211S79.593-300.038,79.8-299.827Zm-34.59,9.717c.264,1.479.507,2.809.539,2.957.042.211-.116.106-.75-.528-1.447-1.426-1.542-1.848-.887-4.056.349-1.151.486-1.479.539-1.3C44.7-292.909,44.95-291.589,45.214-290.11Zm36.449.338a3.233,3.233,0,0,1-1.278,2.091c-.644.634-.792.739-.75.528.032-.148.253-1.331.486-2.64s.475-2.64.549-2.957l.116-.581.465,1.531A5.392,5.392,0,0,1,81.663-289.772Z" transform="translate(144.662 7628.425)"/><path class="b" d="M213.637-151.691a4.293,4.293,0,0,0-2.894,2.081,3.157,3.157,0,0,0-.011,2.345,4.281,4.281,0,0,0,3.211,2.144,4.526,4.526,0,0,0,4.679-2.123,3.161,3.161,0,0,0,0-2.366C217.915-151.163,215.7-152.092,213.637-151.691Zm2.091,1.743a2.72,2.72,0,0,1,1,.57.956.956,0,0,1,.433.951.956.956,0,0,1-.433.951,3.218,3.218,0,0,1-4.1,0,.94.94,0,0,1-.433-.94.972.972,0,0,1,.38-.919A3.258,3.258,0,0,1,215.729-149.948Z" transform="translate(-7.327 7485.264)"/></g></g></svg>