<svg xmlns="http://www.w3.org/2000/svg" width="66.367" height="61.18" viewBox="0 0 66.367 61.18">
  <path id="Caminho_9447" data-name="Caminho 9447" d="M31.272-456.676a28.267,28.267,0,0,0-10.685,3.924l-1.168.72-1.018-.339a4,4,0,0,0-1.941-.272,5.061,5.061,0,0,0-4.073,2.743,4.1,4.1,0,0,0-.475,1.9,3.578,3.578,0,0,0,.3,2l.367.9-.6.937a27.39,27.39,0,0,0-3.964,10.848,37.663,37.663,0,0,0,.122,8.4,31.929,31.929,0,0,0,2.2,6.951c.054.1-.054.19-.244.231a12.57,12.57,0,0,0-3.706,1.073A10.988,10.988,0,0,0,1.8-400.834a11.025,11.025,0,0,0,16.184,2.743,11.364,11.364,0,0,0,3.91-6.191,10,10,0,0,1,.272-1.14,9.83,9.83,0,0,1,1.412.584,26.493,26.493,0,0,0,11.418,2.525,26.372,26.372,0,0,0,12.4-2.905l1.629-.828.774.312a9.921,9.921,0,0,0,4.521.774,9.754,9.754,0,0,0,5.431-1.222,11.783,11.783,0,0,0,5.227-4.806,9.709,9.709,0,0,0,1.222-3.041.991.991,0,0,0-1.018-.91c-.57,0-.91.339-1.14,1.127a11.026,11.026,0,0,1-1.846,3.245,10.387,10.387,0,0,1-5.5,3.381,10.933,10.933,0,0,1-5.5-.2,10.6,10.6,0,0,1-6.368-5.987A10.274,10.274,0,0,1,48.8-425.734a10.292,10.292,0,0,1,8.078-1.344,10.455,10.455,0,0,1,7.535,7.983,2.635,2.635,0,0,0,.38,1.059,1.166,1.166,0,0,0,1.466-.027c.611-.679-.312-3.869-1.738-5.974a16.2,16.2,0,0,0-1.29-1.521l-.869-.91-.027-3.163a22.88,22.88,0,0,0-.76-6.693c-.3-1.195-.584-1.561-1.235-1.561a.957.957,0,0,0-.937.869,9.687,9.687,0,0,0,.285,1.507c.149.652.367,1.833.462,2.634.217,1.6.272,4.9.081,4.9a5.924,5.924,0,0,1-.978-.407,12.528,12.528,0,0,0-4.2-1.032l-1.222-.1v-1.412c0-2.39-.312-2.647-3.3-2.756l-2.009-.068-.543-1.29-.529-1.29,1.344-1.358a16.309,16.309,0,0,0,1.493-1.656,1.828,1.828,0,0,0-.041-1.507,36.427,36.427,0,0,0-3.978-3.951,2.443,2.443,0,0,0-.869-.149c-.543,0-.638.068-2.091,1.493l-1.507,1.493-.882-.38a14.637,14.637,0,0,0-1.371-.557l-.516-.176v-2.037c0-3.2-.027-3.231-3.964-3.231s-3.937,0-4.046,3.245L30.96-443l-.679.231A10.921,10.921,0,0,0,29-442.23l-.6.3-1.371-1.358a16.447,16.447,0,0,0-1.67-1.507,2.443,2.443,0,0,0-.869-.149c-.57,0-.638.041-2.661,2.077l-2.077,2.077v1.453l1.507,1.521,1.507,1.534-.339.652c-.176.367-.434.95-.57,1.29l-.231.638-2.05.054c-3.191.081-3.218.109-3.218,4.046s.041,3.964,3.272,4.046l2,.054.231.625c.136.353.394.937.57,1.3l.339.652-1.507,1.534-1.507,1.521v1.453l2.077,2.077c2.023,2.037,2.091,2.077,2.661,2.077a2.442,2.442,0,0,0,.869-.149,16.442,16.442,0,0,0,1.67-1.507l1.371-1.358.6.3a10.926,10.926,0,0,0,1.276.543l.679.231.068,2.091c.081,2.281.163,2.552.855,2.973.394.244.706.272,3.191.272,3.937,0,3.964-.027,3.964-3.218v-2.023l1.263-.5a13.32,13.32,0,0,1,1.453-.543c.149-.027.244.272.38,1.331A12.352,12.352,0,0,0,45.8-408.4c.611.6,1.113,1.1,1.113,1.127s-.6.3-1.317.652a23.207,23.207,0,0,1-9.585,2.227,22.469,22.469,0,0,1-7.087-.706c-3.082-.774-6.856-2.471-6.856-3.082a10.417,10.417,0,0,0-1.127-3.5,7.7,7.7,0,0,0-2.05-2.8,7.913,7.913,0,0,0-2.8-2.064,14.128,14.128,0,0,0-2.4-.91l-.964-.231-.557-1.222a28.294,28.294,0,0,1-1.887-5.662,18.311,18.311,0,0,1-.353-5.037,18.311,18.311,0,0,1,.353-5.037,26.467,26.467,0,0,1,3.1-7.929c.312-.53.6-.964.611-.991a1.56,1.56,0,0,1,.57.217,4.948,4.948,0,0,0,7.1-3.706,4.908,4.908,0,0,0-.434-2.824,1.617,1.617,0,0,1-.2-.692,22.375,22.375,0,0,1,4.372-2.4,23.273,23.273,0,0,1,9.029-1.846,22.3,22.3,0,0,1,7.155.774,14.358,14.358,0,0,0,1.792.407c.815,0,1.113-1.276.421-1.792a21.224,21.224,0,0,0-5.118-1.263A35.45,35.45,0,0,0,31.272-456.676Zm-13.346,6.286a2.943,2.943,0,0,1,1.684,3.3,3.21,3.21,0,0,1-2.009,2.145,2.907,2.907,0,0,1-3.652-2.512,2.732,2.732,0,0,1,.964-2.444A2.747,2.747,0,0,1,17.926-450.389ZM37-444.579a14.527,14.527,0,0,0,.136,2.24c.177.625.747,1.073,1.765,1.385a11.85,11.85,0,0,1,1.412.584c1.643.828,2,.733,3.856-1.086l1.4-1.371,1.371,1.385,1.385,1.371L46.885-438.6c-1.792,1.833-1.846,2-1.14,3.53.272.584.625,1.453.787,1.941a2.033,2.033,0,0,0,.774,1.181c.434.285.6.312,2.485.312h2.023l-.041,1.249-.041,1.236-.815.217a12.5,12.5,0,0,0-8.486,8.852c-.163.76-.176.76-.665.76a3.685,3.685,0,0,0-1.317.421,13.244,13.244,0,0,1-1.561.652c-1,.312-1.575.76-1.751,1.385A14.45,14.45,0,0,0,37-414.642v1.738H33.064v-2.009c0-2.39-.122-2.7-1.181-3.082a20.956,20.956,0,0,1-2.539-1.086c-.991-.611-1.6-.367-3.3,1.317l-1.4,1.4-1.385-1.385-1.385-1.385,1.371-1.412a8.066,8.066,0,0,0,1.466-1.765c.149-.557.014-1.127-.5-2.335-.272-.6-.584-1.385-.72-1.738-.38-1.059-.692-1.181-3.082-1.181H18.4v-4.073H20.41c2.39,0,2.7-.122,3.082-1.181.136-.353.448-1.14.72-1.738.516-1.208.652-1.779.5-2.335a8.067,8.067,0,0,0-1.466-1.765l-1.371-1.412,1.385-1.385,1.385-1.385,1.4,1.4c1.846,1.833,2.118,1.914,3.992.991a11.413,11.413,0,0,1,1.331-.557c1.588-.5,1.7-.72,1.7-3.326V-446.3H37ZM13.717-415.348a8.758,8.758,0,0,1,3.747,2.294,8.337,8.337,0,0,1,2.62,6.327,8.272,8.272,0,0,1-2.7,6.408,8.442,8.442,0,0,1-4.44,2.4,8.936,8.936,0,0,1-9.9-4.874A9.016,9.016,0,0,1,6.2-414.248,9.173,9.173,0,0,1,13.717-415.348Z" transform="translate(-0.083 456.876)" fill="#fff"/>
</svg>
