<svg xmlns="http://www.w3.org/2000/svg" viewBox="0 0 1000 1000"><defs><style>.cls-1{fill:#ffffff;}</style></defs><g id="Camada_111" data-name="Camada 111"><g id="surface1"><path class="cls-1" d="M668.37,8.48A24.14,24.14,0,0,0,651,.78H262c-71.78,0-131,59-131,130.79V867.2C131,939,190.23,998,262,998H790c71.78,0,131-59,131-130.8V283.08c0-6.26-2.89-12.28-7-16.86Zm7,77.33,164.52,172.7h-107a57.36,57.36,0,0,1-57.57-57.32ZM790,949.82H262c-45,0-82.86-37.33-82.86-82.62V131.57c0-45,37.58-82.62,82.86-82.62H627.18V201.19a105.37,105.37,0,0,0,105.74,105.5h140V867.2C872.87,912.49,835.29,949.82,790,949.82Z"/><path class="cls-1" d="M724.25,783.62H327.77a24.09,24.09,0,0,0,0,48.18H724.49a24.09,24.09,0,1,0-.24-48.18Z"/><path class="cls-1" d="M543.84,340.17a23.91,23.91,0,0,0-35.17,0L367.52,491.68a24,24,0,0,0,35.16,32.76l99.49-106.7v263a24.09,24.09,0,1,0,48.17,0v-263l99.24,106.7a24,24,0,0,0,35.17-32.76Z"/></g></g></svg>