<svg xmlns="http://www.w3.org/2000/svg" xmlns:xlink="http://www.w3.org/1999/xlink" width="75" height="75" viewBox="0 0 75 75"><defs><style>.a{clip-path:url(#b);}.b{fill:#0455fe;}</style><clipPath id="b"><rect width="75" height="75"/></clipPath></defs><g id="a" class="a"><g transform="translate(-683 -1873)"><path class="b" d="M22.513,39.5H18.969a3.15,3.15,0,0,1-3.15-3.15V34.306a.637.637,0,0,0-.413-.544.712.712,0,0,0-.769,0l-1.388,1.5a3.131,3.131,0,0,1-4.444,0L6.238,32.75A3.113,3.113,0,0,1,5.3,30.519a3.225,3.225,0,0,1,.938-2.269l1.388-1.387a.637.637,0,0,0,0-.694c-.112-.281-.3-.488-.562-.488H5.15A3.169,3.169,0,0,1,2,22.513V18.969a3.15,3.15,0,0,1,3.15-3.15H7.194a.638.638,0,0,0,.544-.413.712.712,0,0,0,0-.769l-1.5-1.387a3.131,3.131,0,0,1,0-4.444L8.75,6.238A3.094,3.094,0,0,1,10.963,5.3a3.225,3.225,0,0,1,2.288.938l1.388,1.388a.638.638,0,0,0,.694,0c.281-.113.487-.3.487-.563V5.15A3.169,3.169,0,0,1,18.988,2h3.638a3.15,3.15,0,0,1,3.15,3.15V7.194a.637.637,0,0,0,.413.544.712.712,0,0,0,.769,0l1.294-1.5a3.131,3.131,0,0,1,4.444,0L35.263,8.75a3.131,3.131,0,0,1,.938,2.231,3.056,3.056,0,0,1-.938,2.269l-1.388,1.388a.638.638,0,0,0,0,.694c.112.281.3.488.563.488h2.044A3.169,3.169,0,0,1,39.5,18.988v3.638a3.15,3.15,0,0,1-3.15,3.15H34.306a.774.774,0,0,0-.544,1.106l1.444,1.444a3.131,3.131,0,0,1,0,4.444L32.75,35.263a3.094,3.094,0,0,1-2.213.938,3.225,3.225,0,0,1-2.231-.938l-1.444-1.388a.638.638,0,0,0-.694,0c-.281.112-.488.3-.488.563v2.044A3.169,3.169,0,0,1,22.513,39.5Zm-2.944-3.75h2.363V34.306a4.369,4.369,0,0,1,2.738-4.013,4.425,4.425,0,0,1,4.856.881l1.013,1.013,1.65-1.65-1.013-1.031a4.437,4.437,0,0,1,3.113-7.519H35.75V19.569H34.306a4.369,4.369,0,0,1-4.013-2.738,4.425,4.425,0,0,1,.881-4.856l1.013-1.013-1.65-1.65-1.031,1.013a4.481,4.481,0,0,1-7.5-3.131V5.75H19.569V7.194a4.369,4.369,0,0,1-2.738,4.013,4.425,4.425,0,0,1-4.856-.881L10.963,9.313l-1.65,1.65,1.013,1.031a4.481,4.481,0,0,1-3.131,7.5H5.75v2.363H7.194a4.369,4.369,0,0,1,4.013,2.738,4.425,4.425,0,0,1-.881,4.856L9.313,30.463l1.65,1.65L11.994,31.1a4.481,4.481,0,0,1,7.5,3.131Z" transform="translate(699.75 1889.75)"/><path class="b" d="M15.063,21.625a6.563,6.563,0,1,1,6.563-6.563,6.563,6.563,0,0,1-6.563,6.563Zm0-9.375a2.813,2.813,0,1,0,2.813,2.813A2.813,2.813,0,0,0,15.063,12.25Z" transform="translate(705.438 1895.438)"/></g></g></svg>