<svg xmlns="http://www.w3.org/2000/svg" xmlns:xlink="http://www.w3.org/1999/xlink" width="75" height="75" viewBox="0 0 75 75"><defs><style>.a{clip-path:url(#b);}.b{fill:#0455fe;}</style><clipPath id="b"><rect width="75" height="75"/></clipPath></defs><g id="a" class="a"><g transform="translate(-169 -2125)"><path class="b" d="M40.568,11.141l-6.21-6.21A6.583,6.583,0,0,0,29.706,3H15.793a6.583,6.583,0,0,0-4.652,1.931l-6.21,6.21A6.583,6.583,0,0,0,3,15.793V35.916A6.583,6.583,0,0,0,9.583,42.5H35.916A6.583,6.583,0,0,0,42.5,35.916V15.793a6.583,6.583,0,0,0-1.931-4.652ZM14.235,8.025a2.3,2.3,0,0,1,1.558-.636H29.706a2.3,2.3,0,0,1,1.558.636l3.752,3.752H10.483ZM35.916,38.11H9.583a2.194,2.194,0,0,1-2.194-2.194V16.166H38.11v19.75A2.194,2.194,0,0,1,35.916,38.11Z" transform="translate(183.986 2140.096)"/><path class="b" d="M23.361,11a2.194,2.194,0,0,0-2.194,2.194,4.389,4.389,0,0,1-8.778,0,2.194,2.194,0,0,0-4.389,0,8.778,8.778,0,0,0,17.555,0A2.194,2.194,0,0,0,23.361,11Z" transform="translate(189.958 2149.651)"/></g></g></svg>