<svg xmlns="http://www.w3.org/2000/svg" xmlns:xlink="http://www.w3.org/1999/xlink" width="75" height="75" viewBox="0 0 75 75"><defs><style>.a{clip-path:url(#b);}.b{fill:#0455fe;}</style><clipPath id="b"><rect width="75" height="75"/></clipPath></defs><g id="a" class="a"><g transform="translate(-1096 -1527)"><path class="b" d="M19.964,7a12.964,12.964,0,0,0-7.778,23.335V40.706a5.186,5.186,0,0,0,5.186,5.186h5.186a5.186,5.186,0,0,0,5.186-5.186V30.335A12.964,12.964,0,0,0,19.964,7Zm3.889,19.679a2.593,2.593,0,0,0-1.3,2.256V40.706H17.372V28.935a2.593,2.593,0,0,0-1.3-2.256,7.778,7.778,0,1,1,7.778,0Z" transform="translate(1114.149 1545.149)"/><path class="b" d="M13.593,12.371a2.593,2.593,0,0,0,2.593-2.593V4.593a2.593,2.593,0,0,0-5.186,0V9.778A2.593,2.593,0,0,0,13.593,12.371Z" transform="translate(1120.521 1537.186)"/><path class="b" d="M25.778,11H20.593a2.593,2.593,0,1,0,0,5.186h5.186a2.593,2.593,0,1,0,0-5.186Z" transform="translate(1131.669 1551.52)"/><path class="b" d="M9.778,11H4.593a2.593,2.593,0,0,0,0,5.186H9.778a2.593,2.593,0,0,0,0-5.186Z" transform="translate(1106.186 1551.52)"/><path class="b" d="M12.672,9.122,8.938,5.44a2.623,2.623,0,0,0-3.6,3.811l3.734,3.6a2.6,2.6,0,1,0,3.6-3.734Z" transform="translate(1110.189 1541.523)"/><path class="b" d="M24.193,5.513a2.593,2.593,0,0,0-3.656,0L16.8,9.065A2.613,2.613,0,0,0,20.459,12.8l3.734-3.6a2.593,2.593,0,0,0,0-3.682Z" transform="translate(1128.563 1541.58)"/></g></g></svg>