<svg xmlns="http://www.w3.org/2000/svg" xmlns:xlink="http://www.w3.org/1999/xlink" width="75" height="75" viewBox="0 0 75 75"><defs><style>.a{clip-path:url(#b);}.b{fill:#0742fe;}</style><clipPath id="b"><rect width="75" height="75"/></clipPath></defs><g id="a" class="a"><g transform="translate(-169 -2742)"><path class="b" d="M20.971,39.941A18.971,18.971,0,1,1,39.941,20.971,18.971,18.971,0,0,1,20.971,39.941Zm0-34.147A15.176,15.176,0,1,0,36.147,20.971,15.176,15.176,0,0,0,20.971,5.794Z" transform="translate(186.265 2759.265)"/><path class="b" d="M17.91,5h-12l1.3-1.29A1,1,0,0,0,5.79,2.29l-3,3a1,1,0,0,0,0,1.42l3,3A1,1,0,1,0,7.21,8.29L5.91,7h12A1.56,1.56,0,0,1,19.5,8.53V11a1,1,0,0,0,2,0V8.53A3.56,3.56,0,0,0,17.91,5Z" transform="translate(196 2768)"/><path class="b" d="M6.5,1.5A1.5,1.5,0,0,1,7.564,4.064l-.44.436H17.941A4.071,4.071,0,0,1,22,8.526V11a1.5,1.5,0,0,1-3,0V8.535A1.065,1.065,0,0,0,17.941,7.5H7.124l.438.435a1.5,1.5,0,1,1-2.127,2.127l-3-3a1.5,1.5,0,0,1,0-2.129l3-3A1.494,1.494,0,0,1,6.5,1.5Zm-.59,4H4.7L6.858,3.355a.5.5,0,0,0-.714-.712l-3,3a.5.5,0,0,0,0,.711l3,3a.5.5,0,1,0,.714-.711L4.7,6.5H17.905A2.069,2.069,0,0,1,20,8.52V11a.5.5,0,0,0,1,0V8.53A3.068,3.068,0,0,0,17.941,5.5H5.91Z" transform="translate(196 2768)"/><path class="b" d="M18.21,14.29a1,1,0,0,0-1.42,1.42L18.09,17h-12A1.56,1.56,0,0,1,4.5,15.47V13a1,1,0,0,0-2,0v2.47A3.56,3.56,0,0,0,6.09,19h12l-1.3,1.29a1,1,0,1,0,1.42,1.42l3-3a1,1,0,0,0,0-1.42Z" transform="translate(196 2768)"/><path class="b" d="M3.5,11.5A1.5,1.5,0,0,1,5,13v2.465A1.065,1.065,0,0,0,6.059,16.5H16.876l-.438-.435a1.5,1.5,0,1,1,2.126-2.128l3,3a1.5,1.5,0,0,1,0,2.129l-3,3a1.5,1.5,0,1,1-2.126-2.129l.438-.435H6.059A4.071,4.071,0,0,1,2,15.474V13A1.5,1.5,0,0,1,3.5,11.5Zm2.559,6A2.07,2.07,0,0,1,4,15.48V13a.5.5,0,0,0-1,0v2.47A3.068,3.068,0,0,0,6.059,18.5H19.3l-2.162,2.145a.5.5,0,1,0,.713.713l3-3a.5.5,0,0,0,0-.711l-3-3a.5.5,0,0,0-.713.713L19.3,17.5H6.059Z" transform="translate(196 2768)"/></g></g></svg>