<?xml version="1.0" standalone="no"?>
<!DOCTYPE svg PUBLIC "-//W3C//DTD SVG 20010904//EN"
 "http://www.w3.org/TR/2001/REC-SVG-20010904/DTD/svg10.dtd">
<svg version="1.0" xmlns="http://www.w3.org/2000/svg"
 width="512.000000pt" height="512.000000pt" viewBox="0 0 512.000000 512.000000"
 preserveAspectRatio="xMidYMid meet">

<g transform="translate(0.000000,512.000000) scale(0.100000,-0.100000)"
fill="#fff" stroke="none">
<path d="M4170 5046 c-442 -94 -725 -509 -646 -946 46 -251 207 -465 438 -581
122 -61 210 -82 358 -82 153 -1 224 15 370 85 94 46 115 61 206 152 89 89 106
113 152 206 84 169 81 250 -8 250 -45 0 -62 -17 -85 -90 -30 -94 -84 -181
-164 -261 -135 -134 -277 -193 -466 -193 -192 0 -325 55 -466 194 -71 70 -94
100 -127 170 -95 200 -96 398 -3 585 70 141 166 236 306 306 186 92 392 91
584 -3 66 -32 102 -58 166 -122 90 -89 137 -163 170 -268 28 -88 45 -108 90
-108 39 0 75 31 75 65 0 36 -39 145 -81 225 -99 189 -287 339 -500 400 -96 27
-278 35 -369 16z"/>
<path d="M4085 4620 c-115 -61 -216 -118 -222 -127 -19 -25 -18 -471 1 -495
18 -25 432 -238 461 -238 33 0 424 204 453 236 21 24 22 31 22 244 0 142 -4
228 -11 244 -15 31 -422 246 -466 246 -16 -1 -120 -49 -238 -110z m355 -105
c61 -30 110 -59 110 -63 0 -4 -51 -33 -113 -64 l-114 -56 -118 60 -119 61 115
58 c62 32 117 58 122 58 4 1 57 -24 117 -54z m-192 -435 c2 -74 -1 -121 -7
-118 -5 1 -61 30 -125 63 l-116 60 0 123 0 123 123 -65 122 -65 3 -121z m402
128 l0 -123 -117 -60 c-64 -33 -120 -61 -125 -63 -4 -2 -8 50 -8 116 l0 120
123 66 c67 36 123 66 125 66 1 0 2 -55 2 -122z"/>
<path d="M2298 4554 c-274 -40 -546 -140 -787 -289 l-86 -53 -75 25 c-62 21
-87 24 -143 20 -128 -11 -241 -87 -300 -202 -24 -48 -31 -76 -35 -140 -4 -70
-1 -89 22 -147 l27 -66 -44 -69 c-148 -228 -253 -517 -292 -799 -21 -150 -16
-482 9 -619 29 -160 90 -352 162 -512 4 -7 -4 -14 -18 -17 -150 -29 -194 -41
-273 -79 -442 -214 -598 -749 -338 -1166 254 -408 815 -503 1192 -202 141 112
253 289 288 456 9 44 18 82 20 84 1 2 48 -17 104 -43 263 -124 540 -185 841
-186 335 0 622 67 913 214 l120 61 57 -23 c120 -47 176 -57 333 -57 182 0 243
14 400 90 168 81 290 194 385 354 44 73 90 189 90 224 0 36 -35 67 -75 67 -42
0 -67 -25 -84 -83 -21 -68 -78 -169 -136 -239 -100 -121 -244 -209 -405 -249
-119 -30 -290 -24 -405 15 -211 71 -387 237 -469 441 -132 330 -8 715 293 910
176 114 394 150 595 99 277 -71 504 -311 555 -588 6 -33 18 -68 28 -78 22 -25
84 -24 108 2 45 50 -23 285 -128 440 -17 25 -60 75 -95 112 l-64 67 -2 233
c-3 239 -10 307 -56 493 -22 88 -43 115 -91 115 -35 0 -69 -31 -69 -64 0 -14
9 -64 21 -111 11 -48 27 -135 34 -194 16 -118 20 -361 6 -361 -5 0 -37 13 -72
30 -85 40 -200 68 -309 76 l-90 7 0 104 c0 176 -23 195 -243 203 l-148 5 -40
95 -39 95 99 100 c54 55 104 110 110 122 15 30 14 79 -3 111 -17 32 -262 275
-293 291 -12 6 -41 11 -64 11 -40 0 -47 -5 -154 -110 l-111 -110 -65 28 c-35
16 -81 35 -101 41 l-38 13 0 150 c0 236 -2 238 -292 238 -290 0 -290 0 -298
-239 l-5 -154 -50 -17 c-28 -10 -70 -27 -94 -40 l-44 -22 -101 100 c-56 55
-111 105 -123 111 -12 6 -41 11 -64 11 -42 0 -47 -3 -196 -153 l-153 -153 0
-53 0 -54 111 -112 111 -113 -25 -48 c-13 -27 -32 -70 -42 -95 l-17 -47 -151
-4 c-235 -6 -237 -8 -237 -298 0 -289 3 -292 241 -298 l147 -4 17 -46 c10 -26
29 -69 42 -96 l25 -48 -111 -113 -111 -112 0 -54 0 -53 153 -153 c149 -150
154 -153 196 -153 23 0 52 5 64 11 12 6 67 56 123 111 l101 100 44 -22 c24
-13 66 -30 94 -40 l50 -17 5 -154 c6 -168 12 -188 63 -219 29 -18 52 -20 235
-20 290 0 292 2 292 237 l0 149 93 37 c50 21 99 39 107 40 11 2 18 -20 28 -98
28 -215 119 -400 270 -547 45 -44 82 -81 82 -83 0 -1 -44 -22 -97 -48 -228
-106 -442 -156 -706 -164 -213 -7 -339 6 -522 52 -227 57 -505 182 -505 227 0
51 -35 160 -83 258 -45 94 -61 116 -151 206 -90 90 -112 106 -206 152 -58 28
-137 58 -177 67 l-71 17 -41 90 c-60 131 -108 275 -139 417 -25 117 -26 143
-26 371 0 228 1 254 26 371 45 207 128 422 228 584 23 39 44 71 45 73 2 2 20
-5 42 -16 219 -112 483 26 523 273 11 66 -2 150 -32 208 -10 21 -17 44 -15 51
7 19 215 133 322 177 228 93 406 129 665 136 211 6 341 -8 527 -57 62 -17 121
-30 132 -30 60 0 82 94 31 132 -33 24 -235 74 -377 93 -141 19 -413 18 -545
-1z m-983 -463 c95 -44 145 -143 124 -243 -15 -67 -84 -141 -148 -158 -128
-34 -258 55 -269 185 -6 74 17 134 71 180 66 57 149 70 222 36z m1405 -428 c0
-71 5 -145 10 -165 13 -46 55 -79 130 -102 30 -10 77 -29 104 -43 121 -61 147
-54 284 80 l103 101 101 -102 102 -101 -106 -108 c-132 -135 -136 -147 -84
-260 20 -43 46 -107 58 -143 18 -49 31 -70 57 -87 32 -21 44 -23 183 -23 l149
0 -3 -92 -3 -91 -60 -16 c-296 -81 -561 -357 -625 -652 -12 -56 -13 -56 -49
-56 -20 0 -62 -13 -97 -31 -33 -17 -85 -38 -115 -48 -74 -23 -116 -56 -129
-102 -5 -20 -10 -94 -10 -164 l0 -128 -145 0 -145 0 0 148 c0 176 -9 199 -87
227 -81 30 -165 66 -187 80 -73 45 -118 27 -243 -97 l-103 -103 -102 102 -102
102 101 104 c57 57 105 115 108 130 11 41 1 83 -37 172 -20 44 -43 102 -53
128 -28 78 -51 87 -227 87 l-148 0 0 150 0 150 148 0 c176 0 199 9 227 87 10
26 33 84 53 128 38 89 48 131 37 172 -3 15 -51 73 -108 130 l-101 104 102 102
102 102 103 -103 c136 -135 156 -141 294 -73 32 16 76 34 98 41 117 37 125 53
125 245 l0 145 145 0 145 0 0 -127z m-1715 -2153 c107 -33 191 -85 276 -169
134 -135 193 -277 193 -466 0 -193 -58 -332 -199 -472 -96 -95 -201 -152 -327
-177 -300 -61 -592 83 -729 359 -146 296 -47 658 232 844 157 105 372 136 554
81z"/>
<path d="M2435 3214 c-187 -41 -370 -184 -454 -355 -53 -106 -61 -155 -31
-186 27 -30 82 -31 109 -2 10 11 24 41 31 66 42 148 220 301 389 333 351 66
667 -236 613 -587 -47 -299 -349 -503 -636 -428 -147 39 -282 148 -345 280
-44 91 -57 105 -98 105 -41 0 -73 -30 -73 -69 0 -16 19 -66 42 -112 59 -121
180 -240 298 -297 375 -180 800 -1 936 393 25 71 28 94 28 205 0 111 -3 134
-28 205 -71 207 -232 368 -429 431 -105 33 -250 41 -352 18z"/>
<path d="M2473 2915 c-102 -31 -185 -104 -232 -204 -22 -48 -26 -69 -26 -151
0 -87 3 -101 32 -161 122 -248 458 -282 626 -63 43 57 77 155 77 224 0 156
-115 311 -263 355 -61 18 -157 18 -214 0z m223 -171 c103 -63 133 -196 68
-300 -21 -35 -44 -56 -84 -77 -48 -25 -63 -28 -118 -24 -75 6 -128 37 -169 98
-32 48 -42 136 -23 194 16 48 88 121 132 134 60 18 141 8 194 -25z"/>
<path d="M573 1248 c-152 -80 -214 -117 -222 -135 -7 -15 -11 -107 -11 -248 0
-204 2 -227 18 -243 30 -30 429 -232 457 -232 15 0 122 50 239 111 158 81 216
117 225 135 7 16 11 102 11 244 0 213 -1 220 -22 244 -31 35 -422 236 -456
235 -15 0 -122 -50 -239 -111z m358 -105 c60 -31 109 -60 109 -63 0 -3 -51
-31 -113 -63 l-112 -58 -113 58 c-61 32 -112 60 -112 63 0 7 211 119 224 120
5 0 58 -26 117 -57z m-303 -256 l112 -57 0 -120 c0 -66 -3 -120 -6 -120 -4 0
-60 28 -125 62 l-119 63 0 118 c0 90 3 118 13 115 6 -2 63 -29 125 -61z m512
-54 l0 -118 -119 -62 c-65 -35 -121 -63 -125 -63 -3 0 -6 54 -6 120 l0 119
113 59 c61 33 118 60 125 61 9 1 12 -28 12 -116z"/>
<path d="M3949 2221 l-24 -19 0 -297 0 -297 24 -19 c21 -17 42 -19 256 -19
211 0 235 2 256 18 33 27 30 78 -5 109 -26 22 -33 23 -207 23 l-179 0 0 239 0
240 -26 20 c-33 26 -65 27 -95 2z"/>
</g>
</svg>
