<svg xmlns="http://www.w3.org/2000/svg" xmlns:xlink="http://www.w3.org/1999/xlink" width="75" height="75" viewBox="0 0 75 75"><defs><style>.a{clip-path:url(#b);}.b{fill:#0455fe;}</style><clipPath id="b"><rect width="75" height="75"/></clipPath></defs><g id="a" class="a"><g transform="translate(-1096 -1872)"><path class="b" d="M15.65,18.3A7.65,7.65,0,1,0,8,10.65,7.65,7.65,0,0,0,15.65,18.3Zm0-11.474a3.825,3.825,0,1,1-3.825,3.825A3.825,3.825,0,0,1,15.65,6.825Z" transform="translate(1118.039 1889.477)"/><path class="b" d="M18.387,13A13.387,13.387,0,0,0,5,26.387a1.912,1.912,0,0,0,3.825,0,9.562,9.562,0,0,1,19.124,0,1.912,1.912,0,1,0,3.825,0A13.387,13.387,0,0,0,18.387,13Z" transform="translate(1115.301 1898.601)"/></g></g></svg>